<svg xmlns="http://www.w3.org/2000/svg" xmlns:xlink="http://www.w3.org/1999/xlink" viewBox="0 0 867 1207" focusable="false" class="chakra-icon css-8bo5ge"><g><path fill-rule="evenodd" clip-rule="evenodd" d="M457.2 613.3L457.4 613.1C469.4 593.8 484.3 576.9 502 562.7V353.3H459.7V131.9C485.9 122.6 504.6 97.6002 504.6 68.2002C504.6 30.9002 474.4 0.700195 437.1 0.700195C399.8 0.700195 369.5 30.9002 369.5 68.2002C369.5 97.3002 387.9 122.1 413.7 131.6V353.9H369.5V398.1H457.2V613.3ZM437.1 87.7002C426 87.7002 417.1 78.7002 417.1 67.7002C417.1 56.7002 426.1 47.7002 437.1 47.7002C448.2 47.7002 457.1 56.7002 457.1 67.7002C457.1 78.7002 448.1 87.7002 437.1 87.7002Z" fill="#042d48"/><path d="M585.8 521.3V283.8H538.6V539.2C553.1 531.8 568.9 525.8 585.8 521.3Z" fill="#042d48"/><path fill-rule="evenodd" clip-rule="evenodd" d="M538.5 135.8H669.6V266.9H538.5V135.8ZM585.7 216.7H621.4V181H585.7V216.7Z" fill="#042d48"/><path fill-rule="evenodd" clip-rule="evenodd" d="M337 134.8H205.9V265.9H337V134.8ZM288.8 215.8H253.1V180.1H288.8V215.8Z" fill="#042d48"/><path d="M288.4 284.4H336.5V400.6H205.4V284.4H252.7V350.5H288.4V284.4Z" fill="#042d48"/><path fill-rule="evenodd" clip-rule="evenodd" d="M801.1 135.8C763.8 135.8 735.9 166 735.9 203.4C735.9 233 753.5 258.2 779.4 267.3V429.9H669.4V283.9H621.4V514.2C631 512.9 640.9 512 651 511.5C657.4 511 663.8 510.6 668.8 510.6V475.5H827.4V265.6C851.7 255.4 868.7 231.3 868.7 203.4C868.7 166 838.4 135.8 801.1 135.8ZM801.1 222.8C790 222.8 781 213.8 781 202.8C781 191.7 790 182.8 801.1 182.8C812.2 182.8 821.1 191.8 821.1 202.8C821.2 213.8 812.2 222.8 801.1 222.8Z" fill="#042d48"/><path fill-rule="evenodd" clip-rule="evenodd" d="M206.3 476.5H45.4V266.9C19.2 257.6 0.5 232.6 0.5 203.3C0.5 165.9 30.7 135.7 68 135.7C105.4 135.7 135.6 166 135.6 203.3C135.6 232.2 117.5 256.8 92 266.5V431.3H413.6V610.5C402 592.5 387.8 576.7 371.3 563.3V475.7H335.4V539.9C320.8 532.4 305 526.3 288.2 521.7V476.1H253.1V514.5C238.1 512.3 222.4 511.2 206.3 511.2V476.5ZM88.2 202.7C88.2 191.7 79.2 182.7 68.1 182.7C57 182.7 48 191.7 48.1 202.7C48.1 213.7 57 222.7 68.1 222.7C79.2 222.7 88.2 213.8 88.2 202.7Z" fill="#042d48"/><path fill-rule="evenodd" clip-rule="evenodd" d="M700.6 1025C822.1 842.1 830.6 684.6 826.6 535.8C826.6 535.8 795.8 570.3 712.4 559.2C606.4 545.1 487.2 576.5 469.2 715.2V818.5C469.2 818.5 496.7 756.3 582.6 774.2C666.5 791.7 728.2 745.1 766.5 695.6C766.5 695.6 754.9 870.8 649.1 1003.7C559.7 1115.9 512.2 1136.1 460.1 1150C445.7 1153.8 430.6 1153.8 416.2 1150.1C363.3 1136.2 313.3 1116.2 223.8 1003.8C118 870.9 106.4 695.7 106.4 695.7C144.7 745.1 206.4 791.8 290.3 774.3C376.1 756.4 403.7 818.6 403.7 818.6V715.3C385.7 576.6 266.5 545.2 160.5 559.3C77.1999 570.4 46.2999 535.9 46.2999 535.9C42.1999 684.7 50.7999 842.2 172.3 1025.1C248 1139.1 338.1 1183.1 391.6 1199.9C421.9 1209.4 454.4 1209.4 484.6 1199.7C537 1182.6 625.2 1138.4 700.6 1025ZM651.6 714.7C619.546 721.985 597.36 718.407 577.113 715.142L577.102 715.141C575.119 714.821 573.154 714.504 571.2 714.2C555.2 711.7 529.6 711.4 515.4 722.6C515.4 722.6 533.2 645.9 599.3 634.7C626.256 630.154 643.372 634.135 669.05 640.108C683.477 643.463 700.606 647.447 723.7 650.9C723.9 651 686.8 706.7 651.6 714.7ZM275.3 634.8C341.4 646 359.2 722.7 359.2 722.7C345.1 711.5 319.4 711.8 303.4 714.3C301.443 714.604 299.474 714.922 297.487 715.242C277.24 718.507 255.054 722.085 223 714.8C187.8 706.8 150.8 651.1 150.8 651.1C173.811 647.624 190.899 643.633 205.298 640.27L205.299 640.27L205.3 640.27C231.072 634.251 248.226 630.245 275.3 634.8Z" fill="#042d48"/><path d="M513.6 879.4C513.7 879 513.7 878.7 513.7 878.3C513.7 878.2 513.7 878.1 513.9 878.5V876.3C513.9 876.173 513.895 876.05 513.888 875.931C513.878 875.756 513.862 875.589 513.846 875.427C513.823 875.177 513.8 874.939 513.8 874.7C513.7 873.7 513.6 872.7 513.5 871.8C513.45 871.55 513.425 871.325 513.4 871.1C513.375 870.875 513.35 870.65 513.3 870.4C512.9 867.7 512.3 865.3 511.7 863.3C511.1 861.3 510.4 859.6 509.8 858.2C509.7 858 509.7 857.8 509.7 857.7V857.2C509.738 857.124 509.762 857.062 509.782 857.009C509.796 856.972 509.809 856.938 509.824 856.907C509.831 856.893 509.839 856.879 509.848 856.865C509.862 856.843 509.879 856.822 509.9 856.8L510.2 856.5C510.2 856.4 510.3 856.4 510.3 856.4C510.35 856.4 510.4 856.375 510.45 856.35C510.477 856.337 510.505 856.323 510.532 856.313C510.555 856.305 510.577 856.3 510.6 856.3H510.7C510.8 856.2 511 856.2 511.1 856.2C511.149 856.2 511.199 856.225 511.249 856.25C511.299 856.275 511.349 856.3 511.4 856.3H511.6C511.632 856.332 511.674 856.365 511.721 856.397C511.746 856.415 511.773 856.432 511.8 856.45C511.875 856.5 511.95 856.55 512 856.6C512.3 856.8 512.5 857 512.7 857.2C512.95 857.45 513.175 857.7 513.4 857.95C513.625 858.2 513.85 858.45 514.1 858.7C514.8 859.6 515.5 860.5 516.2 861.6C516.248 861.681 516.299 861.764 516.352 861.849C516.389 861.909 516.427 861.971 516.466 862.033C516.712 862.43 516.982 862.865 517.2 863.3C517.296 863.493 517.403 863.697 517.514 863.907C517.747 864.351 517.996 864.826 518.2 865.3C518.9 866.7 519.5 868.3 520 870C520.4 871.1 520.7 872.4 521 873.7C521.3 875 521.6 876.4 521.8 877.9V878C521.848 878.336 521.873 878.648 521.897 878.949C521.923 879.275 521.948 879.588 522 879.9V880.5C522.1 880.9 522.1 881.3 522.1 881.7V883.5C522 883.7 522 884 522 884.2C522 884.269 521.995 884.343 521.987 884.42C521.977 884.511 521.963 884.605 521.95 884.7C521.938 884.78 521.927 884.859 521.918 884.937C521.907 885.029 521.9 885.118 521.9 885.2C521.9 885.3 521.875 885.425 521.85 885.55C521.839 885.606 521.828 885.661 521.819 885.714C521.808 885.781 521.8 885.845 521.8 885.9C521.8 886.2 521.8 886.5 521.7 886.8C521.65 886.9 521.625 887.025 521.6 887.15C521.575 887.275 521.55 887.4 521.5 887.5C521.45 887.65 521.425 887.8 521.4 887.95C521.391 888.006 521.381 888.061 521.371 888.117C521.353 888.211 521.331 888.306 521.3 888.4C521.25 888.5 521.225 888.625 521.2 888.75C521.175 888.875 521.15 889 521.1 889.1L520.8 890C520.8 890.3 520.7 890.5 520.6 890.7C520.578 890.766 520.555 890.828 520.533 890.887C520.505 890.961 520.478 891.031 520.45 891.1C520.422 891.17 520.394 891.241 520.366 891.315C520.344 891.374 520.322 891.435 520.3 891.5L520 892.1C519.8 892.4 519.7 892.6 519.6 892.9L519.3 893.5C519.2 893.7 519 894 518.9 894.2C518.85 894.3 518.775 894.4 518.7 894.5C518.625 894.6 518.55 894.7 518.5 894.8C518.4 894.9 518.325 895.025 518.25 895.15C518.198 895.237 518.146 895.324 518.086 895.402C518.059 895.436 518.031 895.47 518 895.5C517.95 895.6 517.875 895.7 517.8 895.8C517.725 895.9 517.65 896 517.6 896.1C517.546 896.181 517.5 896.254 517.457 896.322C517.339 896.508 517.246 896.654 517.1 896.8C517 896.9 516.8 897.1 516.7 897.3L513.9 900.1C513.8 900.3 513.6 900.5 513.4 900.6C513.2 900.7 512.9 900.9 512.7 901.1C512.6 901.15 512.5 901.225 512.4 901.3C512.3 901.375 512.2 901.45 512.1 901.5C512 901.6 511.875 901.675 511.75 901.75C511.703 901.778 511.656 901.807 511.611 901.836C511.535 901.885 511.462 901.938 511.4 902C511.3 902.05 511.2 902.125 511.1 902.2C511 902.275 510.9 902.35 510.8 902.4C510.6 902.6 510.4 902.7 510.1 902.9C509.9 903.1 509.7 903.2 509.5 903.3C509.35 903.35 509.225 903.425 509.1 903.5C508.975 903.575 508.85 903.65 508.7 903.7L508.1 904C507.95 904.05 507.825 904.125 507.7 904.2C507.575 904.275 507.45 904.35 507.3 904.4L506.7 904.7C506.5 904.9 506.2 905 505.9 905.1C505.6 905.2 505.401 905.3 505.201 905.4L505.2 905.4L504.3 905.7C504.167 905.745 504.053 905.789 503.951 905.833C503.873 905.867 503.801 905.901 503.731 905.935C503.687 905.957 503.643 905.979 503.6 906L502.7 906.3C502.6 906.35 502.475 906.375 502.35 906.4C502.225 906.425 502.1 906.45 502 906.5L501.1 906.8C501 906.85 500.875 906.875 500.75 906.9C500.625 906.925 500.5 906.95 500.4 907C500.1 907 499.8 907.1 499.5 907.2C499.417 907.242 499.317 907.266 499.214 907.287L499.103 907.31C498.994 907.332 498.887 907.357 498.8 907.4C498.616 907.446 498.454 907.471 498.303 907.494C498.125 907.521 497.962 907.546 497.8 907.6C497.719 907.6 497.646 907.607 497.578 907.618C497.54 907.624 497.504 907.631 497.47 907.638C497.438 907.644 497.408 907.651 497.379 907.658C497.28 907.68 497.19 907.7 497.1 907.7C496.95 907.75 496.775 907.775 496.6 907.8C496.425 907.825 496.25 907.85 496.1 907.9C496.026 907.9 495.952 907.914 495.878 907.931C495.852 907.937 495.826 907.944 495.8 907.95C495.7 907.975 495.6 908 495.5 908C495.3 908 495.126 908.025 494.951 908.05L494.95 908.05C494.775 908.075 494.6 908.1 494.4 908.1C494.3 908.1 494.2 908.125 494.1 908.15C494.001 908.175 493.9 908.2 493.8 908.2C493.6 908.2 493.4 908.225 493.2 908.25C493 908.275 492.8 908.3 492.6 908.3H492.2C491.9 908.3 491.626 908.325 491.352 908.35L491.35 908.35C491.075 908.375 490.8 908.4 490.5 908.4H487.1C486.1 908.3 485.1 908.3 484.1 908.3H480.6C480.3 908.4 479.9 908.4 479.6 908.4C479.3 908.5 479 908.5 478.7 908.5C478.55 908.5 478.375 908.525 478.2 908.55C478.025 908.575 477.85 908.6 477.7 908.6C477.597 908.6 477.495 908.612 477.393 908.627C477.346 908.634 477.298 908.642 477.251 908.65L477.249 908.65C477.099 908.675 476.95 908.7 476.8 908.7C476.65 908.7 476.475 908.725 476.3 908.75C476.125 908.775 475.95 908.8 475.8 908.8C475.65 908.8 475.501 908.825 475.351 908.85L475.349 908.85C475.199 908.875 475.049 908.9 474.9 908.9C474.716 908.946 474.554 908.971 474.403 908.994C474.225 909.021 474.062 909.046 473.9 909.1C473.6 909.1 473.3 909.1 473 909.2C472.817 909.246 472.655 909.271 472.504 909.294C472.326 909.321 472.162 909.346 472 909.4C471.892 909.454 471.754 909.479 471.603 909.506C471.475 909.53 471.337 909.554 471.2 909.6C470.9 909.6 470.601 909.7 470.301 909.8L470.3 909.8C470.207 909.831 470.123 909.853 470.044 909.87C469.995 909.881 469.948 909.891 469.901 909.9L469.899 909.9C469.774 909.925 469.649 909.95 469.5 910L468.6 910.3C468.362 910.3 468.188 910.363 467.976 910.439C467.921 910.458 467.862 910.479 467.8 910.5L466.9 910.8C466.75 910.85 466.625 910.9 466.5 910.95C466.375 911 466.25 911.05 466.1 911.1C465.95 911.15 465.8 911.225 465.65 911.3C465.5 911.375 465.35 911.45 465.2 911.5C465.183 911.509 465.165 911.517 465.147 911.526C465.057 911.567 464.954 911.609 464.85 911.65L464.771 911.682L464.713 911.705C464.636 911.737 464.563 911.769 464.5 911.8C464.388 911.856 464.285 911.904 464.184 911.949C464.13 911.973 464.077 911.996 464.024 912.019L463.95 912.05C463.775 912.125 463.6 912.2 463.4 912.3L462.8 912.6C462.2 912.8 461.7 913.1 461.2 913.4L460.6 913.7C460.45 913.8 460.275 913.9 460.1 914L460.099 914.001C459.924 914.101 459.75 914.2 459.6 914.3C459.411 914.363 459.263 914.465 459.128 914.557C459.049 914.612 458.974 914.663 458.9 914.7L458 915.3C457.7 915.4 457.5 915.6 457.3 915.8C457 916 456.8 916.2 456.5 916.4C456.2 916.6 456 916.8 455.8 917C455.65 917.1 455.525 917.225 455.4 917.35C455.359 917.391 455.319 917.431 455.277 917.471C455.191 917.554 455.101 917.633 455 917.7C454.7 917.9 454.5 918.1 454.301 918.3L453.6 919C453.395 919.137 453.237 919.32 453.093 919.486C453.027 919.563 452.963 919.637 452.9 919.7C452.849 919.777 452.791 919.847 452.73 919.914C452.701 919.946 452.671 919.978 452.64 920.009C452.61 920.04 452.58 920.07 452.55 920.1C452.425 920.225 452.3 920.35 452.2 920.5C452.1 920.6 452 920.725 451.9 920.85C451.857 920.904 451.815 920.957 451.772 921.008C451.715 921.077 451.657 921.143 451.6 921.2C451.4 921.4 451.1 921.7 450.9 922C450.8 922.15 450.7 922.275 450.6 922.4C450.565 922.444 450.528 922.49 450.492 922.536C450.479 922.553 450.465 922.571 450.452 922.588C450.401 922.655 450.35 922.724 450.3 922.8C450 923.1 449.8 923.4 449.6 923.7C449.4 923.9 449.2 924.199 449.001 924.499L449 924.5C448.8 924.9 448.6 925.2 448.4 925.5L447.8 926.4C447.6 926.7 447.4 927 447.2 927.4L446.6 928.3C446.578 928.344 446.556 928.387 446.534 928.429C446.487 928.517 446.441 928.602 446.394 928.685C446.263 928.918 446.131 929.138 446 929.4C445.939 929.491 445.888 929.591 445.84 929.695C445.809 929.763 445.779 929.831 445.75 929.9C445.675 930.075 445.6 930.25 445.5 930.4L444.9 931.6C444.771 931.794 444.683 931.988 444.584 932.208C444.529 932.329 444.471 932.458 444.4 932.6C444.3 932.8 444.2 933.025 444.1 933.25C444.042 933.38 443.985 933.509 443.927 933.634C443.885 933.726 443.842 933.815 443.8 933.9C443.7 934.1 443.625 934.275 443.55 934.45L443.549 934.451C443.475 934.626 443.4 934.801 443.3 935C443.2 935.25 443.1 935.475 443 935.7L442.996 935.709C442.954 935.802 442.913 935.896 442.871 935.992C442.814 936.123 442.757 936.257 442.7 936.4C442.663 936.512 442.612 936.637 442.557 936.771C442.465 936.997 442.363 937.249 442.3 937.5C442.2 938 442 938.5 441.8 939C441.763 939.112 441.712 939.237 441.657 939.371C441.565 939.597 441.463 939.849 441.4 940.1C441.32 940.578 441.177 940.992 441.021 941.444L441.02 941.447C440.981 941.562 440.94 941.679 440.9 941.8C440.9 942.038 440.837 942.212 440.762 942.423L440.739 942.487C440.726 942.523 440.713 942.561 440.7 942.6C440.7 942.627 440.698 942.652 440.695 942.675C440.69 942.71 440.683 942.742 440.674 942.771C440.663 942.807 440.649 942.839 440.637 942.869C440.617 942.917 440.6 942.959 440.6 943C440.5 943.349 440.401 943.673 440.301 943.996L440.299 944.004C440.199 944.328 440.099 944.652 440 945L439.7 945.9C439.529 946.469 439.391 947.038 439.248 947.626L439.247 947.628C439.139 948.072 439.029 948.527 438.9 949C438.8 949.3 438.7 949.5 438.6 949.699C438.5 949.899 438.4 950.1 438.2 950.2C438.1 950.3 437.9 950.4 437.7 950.5C437.5 950.6 437.3 950.6 437.1 950.6H436.4C436.3 950.5 436.2 950.5 436.1 950.4C436.1 950.4 436 950.4 435.9 950.3L435.6 950C435.536 949.936 435.472 949.913 435.434 949.879C435.413 949.859 435.4 949.836 435.4 949.8C435.333 949.734 435.266 949.578 435.2 949.422C435.166 949.345 435.133 949.267 435.1 949.2C434.8 948.102 434.501 947.104 434.202 946.106L434.2 946.1C434.1 945.7 434 945.4 433.9 945.1C433.7 944.4 433.5 943.7 433.3 943.1C433.1 942.7 433 942.4 432.9 942C432.8 941.7 432.7 941.425 432.6 941.15L432.599 941.148C432.499 940.874 432.4 940.6 432.3 940.3C432.25 940.1 432.175 939.925 432.1 939.75C432.025 939.576 431.95 939.4 431.9 939.2L431.3 937.7C431.25 937.5 431.175 937.325 431.1 937.15C431.025 936.975 430.95 936.8 430.9 936.6C430.8 936.35 430.7 936.125 430.6 935.9C430.5 935.675 430.4 935.45 430.3 935.2C430.2 935 430.125 934.825 430.05 934.65C429.975 934.475 429.9 934.3 429.8 934.1C429.7 933.9 429.6 933.675 429.5 933.45C429.461 933.362 429.421 933.273 429.382 933.187C429.321 933.052 429.261 932.922 429.2 932.8C429.1 932.65 429.025 932.475 428.95 932.3C428.875 932.125 428.8 931.95 428.7 931.8L428.1 930.6C428.029 930.458 427.971 930.329 427.916 930.208C427.816 929.988 427.729 929.794 427.6 929.6L427 928.4C426.9 928.251 426.825 928.101 426.75 927.951L426.749 927.949C426.674 927.8 426.6 927.65 426.5 927.5C426.2 927.1 426 926.8 425.8 926.4C425.679 926.279 425.594 926.121 425.502 925.949L425.47 925.889C425.459 925.868 425.447 925.847 425.436 925.826C425.395 925.752 425.35 925.676 425.3 925.6C425.197 925.446 425.067 925.264 424.938 925.084C424.817 924.914 424.697 924.746 424.6 924.6C424.5 924.45 424.425 924.325 424.35 924.2C424.275 924.075 424.2 923.95 424.1 923.8C424 923.65 423.875 923.475 423.75 923.3C423.625 923.125 423.5 922.95 423.4 922.8C423.3 922.7 423.225 922.575 423.15 922.45C423.133 922.422 423.116 922.394 423.099 922.366C423.04 922.27 422.977 922.178 422.9 922.1C422.837 922.017 422.779 921.938 422.724 921.863C422.512 921.575 422.337 921.338 422.1 921.1C422 921 421.925 920.9 421.85 920.8C421.775 920.7 421.7 920.6 421.6 920.5C421.4 920.1 421.1 919.8 420.8 919.5L420.3 919C420 918.6 419.6 918.201 419.3 917.901L419 917.6C418.5 917.1 418.1 916.7 417.6 916.3C417.55 916.25 417.5 916.225 417.45 916.2C417.4 916.175 417.35 916.15 417.3 916.1L416.1 915.2C415.9 915 415.8 914.9 415.6 914.8C415.344 914.672 415.128 914.503 414.928 914.345L414.924 914.343C414.876 914.305 414.829 914.267 414.782 914.232C414.721 914.185 414.66 914.141 414.6 914.1C414.5 914.05 414.4 913.975 414.3 913.9C414.2 913.825 414.1 913.75 414 913.7L413.1 913.1C412.9 912.9 412.7 912.8 412.5 912.7C412.411 912.641 412.321 912.59 412.232 912.543C412.171 912.511 412.111 912.481 412.05 912.45C411.9 912.375 411.75 912.3 411.6 912.2C411.5 912.15 411.375 912.1 411.25 912.05C411.125 912 411 911.95 410.9 911.9C410.75 911.85 410.6 911.775 410.45 911.7C410.3 911.625 410.15 911.55 410 911.5C409.9 911.451 409.776 911.401 409.652 911.351L409.641 911.347C409.583 911.323 409.526 911.3 409.471 911.277C409.409 911.252 409.351 911.226 409.3 911.2C409 911 408.7 910.9 408.4 910.8C408.3 910.75 408.175 910.7 408.05 910.65L408.048 910.649C407.923 910.6 407.799 910.55 407.7 910.5L406.8 910.2C406.562 910.2 406.388 910.138 406.176 910.062C406.121 910.042 406.062 910.021 406 910C405.795 909.949 405.616 909.898 405.451 909.846C405.294 909.798 405.148 909.75 405.003 909.701L405 909.7C404.85 909.65 404.726 909.625 404.601 909.6L404.599 909.6C404.522 909.585 404.446 909.569 404.364 909.548C404.312 909.535 404.258 909.52 404.2 909.5C403.9 909.5 403.5 909.4 403.2 909.3C403.11 909.27 403.029 909.249 402.951 909.232C402.9 909.22 402.85 909.21 402.8 909.2C402.675 909.175 402.55 909.15 402.4 909.1C402.371 909.09 402.341 909.082 402.31 909.074C402.281 909.066 402.253 909.06 402.223 909.054C402.12 909.032 402.01 909.016 401.9 909L401.899 909C401.724 908.975 401.549 908.95 401.4 908.9C401.309 908.9 401.228 908.891 401.15 908.878C401.099 908.87 401.05 908.86 401 908.85L400.999 908.85C400.874 908.825 400.75 908.8 400.6 908.8C400.4 908.75 400.225 908.725 400.05 908.7C399.875 908.675 399.7 908.65 399.5 908.6C399.35 908.6 399.225 908.575 399.101 908.55L399.099 908.55C398.974 908.525 398.85 908.5 398.7 908.5C398.5 908.5 398.301 908.475 398.101 908.45L398.1 908.45C397.9 908.425 397.7 908.4 397.5 908.4C397.431 908.4 397.368 908.395 397.308 908.387C397.237 908.378 397.169 908.364 397.102 908.351L397.1 908.35C396.975 908.325 396.85 908.3 396.7 908.3C396.558 908.3 396.403 908.288 396.245 908.271C396.181 908.265 396.115 908.258 396.05 908.25C395.825 908.225 395.6 908.2 395.4 908.2H394.7C394.1 908.1 393.5 908.1 392.9 908.1H388.4C388 908.1 387.625 908.125 387.25 908.15L387.247 908.15C386.873 908.175 386.499 908.2 386.1 908.2H380.9C380.75 908.2 380.601 908.175 380.451 908.15L380.45 908.15C380.355 908.135 380.261 908.119 380.167 908.109C380.111 908.104 380.056 908.1 380 908.1C379.8 908 379.5 908 379.3 908C379.086 908 378.901 907.972 378.729 907.945L378.728 907.945C378.578 907.922 378.439 907.9 378.3 907.9C378.2 907.9 378.076 907.875 377.951 907.85L377.949 907.85C377.824 907.825 377.699 907.8 377.6 907.8C377.509 907.77 377.409 907.749 377.306 907.731C377.238 907.72 377.169 907.71 377.1 907.7C377.024 907.689 376.948 907.679 376.874 907.666C376.777 907.649 376.685 907.628 376.6 907.6C376.5 907.6 376.4 907.575 376.3 907.55L376.299 907.55C376.199 907.525 376.1 907.5 376 907.5C375.6 907.4 375.1 907.3 374.7 907.2C374.653 907.153 374.606 907.128 374.559 907.115C374.506 907.1 374.453 907.1 374.4 907.1C374.266 907.073 374.125 907.04 373.981 907.002C373.855 906.97 373.728 906.935 373.6 906.9C373.456 906.861 373.312 906.822 373.172 906.786C373.044 906.754 372.919 906.724 372.8 906.7C372.709 906.655 372.617 906.63 372.526 906.607C372.417 906.579 372.309 906.555 372.2 906.5C371.801 906.401 371.502 906.301 371.203 906.201L371.2 906.2C371 906.2 370.7 906.1 370.5 906L369.6 905.7C369.5 905.65 369.375 905.6 369.25 905.55L369.191 905.527C369.145 905.508 369.101 905.49 369.058 905.472C369.001 905.448 368.948 905.424 368.9 905.4C368.739 905.347 368.607 905.293 368.473 905.24C368.357 905.193 368.239 905.147 368.1 905.1C367.9 905 367.6 904.9 367.4 904.8C367.25 904.75 367.125 904.7 367 904.65C366.875 904.6 366.75 904.55 366.6 904.5C366.58 904.49 366.56 904.481 366.539 904.471L366.5 904.454C366.422 904.419 366.336 904.385 366.25 904.35C366.214 904.336 366.178 904.321 366.142 904.307C366.055 904.271 365.971 904.236 365.9 904.2C365.824 904.124 365.733 904.062 365.638 904.009C365.544 903.957 365.446 903.913 365.356 903.872C365.3 903.848 365.247 903.824 365.2 903.8C365.1 903.75 364.975 903.675 364.85 903.6C364.776 903.556 364.703 903.512 364.634 903.473C364.586 903.446 364.541 903.421 364.5 903.4C364.4 903.35 364.275 903.275 364.15 903.2C364.025 903.125 363.9 903.05 363.8 903C363.612 902.938 363.463 902.835 363.328 902.743L363.322 902.739C363.295 902.72 363.268 902.702 363.241 902.684C363.193 902.652 363.147 902.624 363.1 902.6C363 902.55 362.874 902.475 362.749 902.4L362.675 902.355C362.576 902.296 362.48 902.24 362.4 902.2C362.3 902.15 362.2 902.076 362.101 902.001L362.099 902C362.03 901.948 361.962 901.897 361.893 901.853C361.862 901.834 361.831 901.816 361.8 901.8C361.7 901.7 361.6 901.625 361.5 901.55C361.4 901.475 361.3 901.4 361.2 901.3C361.1 901.2 361 901.125 360.9 901.05C360.8 900.975 360.7 900.9 360.6 900.8C360.5 900.7 360.4 900.625 360.3 900.55C360.253 900.515 360.205 900.479 360.158 900.441C360.105 900.399 360.053 900.353 360 900.3C359.9 900.2 359.8 900.125 359.7 900.05C359.6 899.975 359.5 899.9 359.4 899.8C359.2 899.7 359 899.5 358.8 899.3C358.6 899.2 358.4 899 358.2 898.8C358.1 898.6 357.9 898.4 357.7 898.2C357.653 898.153 357.611 898.106 357.573 898.059C357.529 898.006 357.49 897.953 357.45 897.9C357.375 897.8 357.3 897.7 357.2 897.6C357.1 897.5 357.025 897.4 356.95 897.3C356.875 897.2 356.8 897.1 356.7 897C356.6 896.9 356.525 896.8 356.45 896.7C356.375 896.6 356.3 896.5 356.2 896.4C356.1 896.3 356.025 896.2 355.95 896.1C355.875 896 355.8 895.9 355.7 895.8C355.65 895.7 355.575 895.6 355.5 895.5C355.425 895.4 355.35 895.3 355.3 895.2C355.237 895.012 355.135 894.863 355.043 894.729C354.988 894.649 354.937 894.575 354.9 894.5C354.85 894.4 354.775 894.301 354.7 894.201L354.699 894.2C354.625 894.1 354.55 894 354.5 893.9C354.45 893.8 354.375 893.675 354.3 893.55C354.225 893.425 354.15 893.3 354.1 893.2C353.9 892.9 353.8 892.7 353.7 892.5C353.65 892.401 353.6 892.276 353.55 892.151L353.55 892.15C353.5 892.025 353.45 891.9 353.4 891.8C353.35 891.7 353.3 891.575 353.25 891.45C353.2 891.325 353.15 891.2 353.1 891.1C353.05 890.95 353 890.825 352.95 890.7C352.9 890.575 352.85 890.45 352.8 890.3C352.782 890.264 352.763 890.224 352.745 890.182C352.713 890.109 352.682 890.03 352.65 889.95C352.619 889.874 352.588 889.797 352.558 889.726C352.538 889.681 352.519 889.639 352.5 889.6C352.5 889.363 352.437 889.188 352.362 888.977C352.351 888.948 352.341 888.918 352.33 888.888C352.32 888.859 352.31 888.83 352.3 888.8C352.244 888.688 352.219 888.576 352.191 888.446C352.177 888.382 352.162 888.315 352.142 888.241C352.13 888.197 352.116 888.15 352.1 888.1C352.08 888.042 352.065 887.984 352.051 887.926C352.03 887.834 352.015 887.742 352 887.65L351.988 887.578C351.979 887.527 351.97 887.477 351.959 887.426C351.944 887.351 351.925 887.276 351.9 887.2C351.888 887.165 351.877 887.132 351.865 887.1L351.838 887.024C351.762 886.812 351.7 886.638 351.7 886.4C351.7 886.25 351.675 886.1 351.65 885.95C351.625 885.8 351.6 885.65 351.6 885.5C351.6 885.35 351.575 885.225 351.55 885.1C351.525 884.975 351.5 884.85 351.5 884.7C351.4 884.4 351.4 884 351.4 883.7C351.3 883.4 351.3 883.2 351.3 882.9V881.1C351.3 880.9 351.325 880.701 351.35 880.501C351.375 880.301 351.4 880.1 351.4 879.9V879.3C351.4 878.7 351.5 878 351.6 877.4C352.6 871 354.3 866.2 356.2 862.7C356.567 862.04 356.987 861.379 357.383 860.758L357.571 860.463C357.649 860.34 357.726 860.219 357.8 860.1C359 858.5 360.1 857.2 361.2 856.2C361.263 856.075 361.365 856.028 361.457 855.986C361.482 855.974 361.507 855.963 361.53 855.95C361.556 855.936 361.58 855.92 361.6 855.9H361.8C361.9 855.8 362 855.8 362.1 855.8C362.15 855.8 362.225 855.825 362.3 855.85C362.327 855.859 362.355 855.869 362.381 855.877C362.426 855.89 362.468 855.9 362.5 855.9H362.6C362.7 855.9 362.8 855.9 362.9 856C362.9 856.042 362.917 856.066 362.937 856.08C362.966 856.1 363 856.1 363 856.1L363.3 856.4C363.4 856.5 363.5 856.7 363.5 856.8V857.3C363.5 857.5 363.5 857.6 363.4 857.8L363.399 857.803C363.099 858.502 362.799 859.201 362.5 860.1L362.498 860.105C362.199 861.004 361.899 861.902 361.6 862.9C361.4 863.5 361.2 864.2 361 865L360.7 866.2C360.59 866.639 360.51 867.078 360.428 867.534L360.427 867.536C360.36 867.91 360.29 868.295 360.2 868.7C360.147 868.913 360.122 869.125 360.095 869.353C360.072 869.553 360.047 869.766 360 870C359.8 871.3 359.6 872.8 359.5 874.3C359.5 874.613 359.473 874.899 359.447 875.172L359.446 875.174C359.423 875.423 359.4 875.662 359.4 875.9V878.4C359.4 878.6 359.425 878.775 359.45 878.95C359.475 879.125 359.5 879.3 359.5 879.5V879.6C359.5 879.75 359.525 879.9 359.55 880.05C359.56 880.114 359.571 880.178 359.58 880.243C359.592 880.328 359.6 880.414 359.6 880.5V880.8C359.6 881.1 359.6 881.3 359.7 881.6C359.8 881.7 359.8 881.8 359.8 881.9C359.8 882.3 359.9 882.6 360 882.9C360.1 883 360.1 883 360.1 883.1C360.1 883.3 360.2 883.6 360.3 883.8C360.3 883.85 360.325 883.9 360.35 883.95C360.375 884 360.4 884.05 360.4 884.1C360.45 884.2 360.5 884.325 360.55 884.45C360.6 884.575 360.65 884.7 360.7 884.8C360.7 884.9 360.8 884.9 360.8 885C360.85 885.15 360.925 885.275 361 885.4C361.075 885.525 361.15 885.65 361.2 885.8C361.2 885.85 361.225 885.875 361.25 885.9C361.275 885.925 361.3 885.95 361.3 886C361.5 886.2 361.6 886.4 361.7 886.6L361.9 886.8C361.938 886.839 361.973 886.877 362.006 886.916C362.036 886.952 362.064 886.987 362.091 887.023C362.111 887.049 362.13 887.074 362.15 887.1C362.197 887.164 362.245 887.227 362.299 887.291C362.33 887.327 362.363 887.364 362.4 887.4C362.416 887.4 362.43 887.403 362.441 887.407C362.459 887.414 362.472 887.426 362.481 887.439C362.5 887.467 362.5 887.5 362.5 887.5C362.6 887.6 362.7 887.675 362.8 887.75C362.9 887.825 363 887.9 363.1 888C363.2 888 363.2 888.1 363.3 888.1C363.313 888.107 363.326 888.114 363.339 888.121C363.363 888.133 363.386 888.146 363.407 888.159C363.458 888.189 363.504 888.22 363.55 888.25C363.594 888.28 363.638 888.309 363.688 888.339C363.722 888.359 363.759 888.38 363.8 888.4C363.83 888.4 363.851 888.409 363.868 888.422C363.88 888.43 363.89 888.44 363.9 888.45C363.91 888.461 363.92 888.471 363.932 888.479C363.95 888.492 363.97 888.5 364 888.5C364.1 888.55 364.225 888.6 364.35 888.65L364.422 888.679C364.48 888.703 364.537 888.726 364.591 888.75C364.629 888.766 364.666 888.783 364.7 888.8C364.9 888.9 365.2 889 365.4 889H365.6C365.8 889.1 366 889.1 366.2 889.1H366.4C366.501 889.1 366.591 889.089 366.678 889.074C366.719 889.066 366.759 889.058 366.799 889.05C366.871 889.036 366.943 889.022 367.019 889.012C367.076 889.005 367.136 889 367.2 889C367.4 889 367.7 888.9 368 888.8C368.017 888.8 368.034 888.797 368.051 888.792C368.084 888.783 368.117 888.767 368.15 888.75C368.176 888.737 368.201 888.724 368.227 888.715C368.251 888.706 368.276 888.7 368.3 888.7L368.9 888.4C368.91 888.4 368.919 888.399 368.929 888.398C368.949 888.394 368.969 888.387 368.989 888.379C369.059 888.35 369.13 888.3 369.2 888.3C369.274 888.263 369.349 888.212 369.428 888.157C369.563 888.065 369.712 887.963 369.9 887.9C369.95 887.9 369.975 887.875 370 887.85C370.025 887.825 370.05 887.8 370.1 887.8C370.181 887.746 370.269 887.685 370.361 887.62C370.439 887.565 370.519 887.508 370.6 887.45C370.775 887.325 370.95 887.2 371.1 887.1C371.1 887.038 371.138 887.015 371.191 886.982C371.223 886.962 371.262 886.938 371.3 886.9C371.45 886.8 371.575 886.7 371.7 886.6C371.825 886.5 371.95 886.4 372.1 886.3L372.4 886C372.7 885.8 372.9 885.6 373.2 885.3L373.5 885C373.8 884.6 374.2 884.2 374.6 883.8C374.9 883.401 375.299 883.001 375.699 882.601L375.7 882.6C375.77 882.461 375.888 882.37 375.987 882.294C376.03 882.261 376.07 882.23 376.1 882.2C376.23 882.004 376.404 881.851 376.592 881.685L376.593 881.684C376.692 881.596 376.796 881.504 376.9 881.4L377.3 881C377.6 880.7 377.9 880.4 378.2 880.2C378.25 880.15 378.325 880.1 378.4 880.05C378.436 880.026 378.473 880.002 378.507 879.977C378.542 879.952 378.574 879.926 378.6 879.9C379 879.5 379.4 879.2 379.8 878.9L379.9 878.8L379.901 878.8C380.301 878.5 380.7 878.2 381.2 877.9C381.3 877.8 381.5 877.7 381.6 877.6C382 877.4 382.3 877.2 382.6 877C382.7 876.95 382.775 876.9 382.85 876.85C382.925 876.8 383 876.75 383.1 876.7C383.5 876.6 383.8 876.4 384.1 876.2C384.3 876.1 384.4 876 384.6 875.9C384.903 875.673 385.263 875.503 385.594 875.347L385.598 875.345L385.609 875.34C385.71 875.293 385.807 875.246 385.9 875.2C385.9 875.1 386 875.1 386 875.1L387.5 874.5C387.6 874.45 387.675 874.425 387.75 874.4C387.825 874.375 387.9 874.35 388 874.3C388.15 874.25 388.325 874.175 388.5 874.1C388.603 874.056 388.707 874.012 388.805 873.973C388.873 873.945 388.938 873.921 389 873.9C389.03 873.87 389.07 873.849 389.116 873.831C389.155 873.816 389.199 873.804 389.245 873.791C389.324 873.769 389.412 873.744 389.5 873.7C389.65 873.65 389.824 873.6 389.999 873.55C390.077 873.528 390.156 873.506 390.232 873.483C390.326 873.456 390.417 873.428 390.5 873.4C390.553 873.374 390.599 873.347 390.642 873.322L390.643 873.322C390.761 873.254 390.853 873.2 391 873.2C391.175 873.156 391.37 873.113 391.567 873.069L391.65 873.05C391.875 873 392.1 872.95 392.3 872.9C392.357 872.843 392.382 872.818 392.411 872.808C392.418 872.805 392.426 872.804 392.435 872.802C392.44 872.802 392.446 872.801 392.452 872.801C392.465 872.8 392.481 872.8 392.5 872.8L394 872.5C394.2 872.4 394.3 872.4 394.5 872.4C394.569 872.383 394.635 872.366 394.699 872.349C395.006 872.269 395.269 872.2 395.6 872.2C395.7 872.1 395.9 872.1 396.1 872.1C396.25 872.1 396.425 872.075 396.6 872.05C396.775 872.025 396.95 872 397.1 872H399.1C399.399 872 399.698 872.025 399.998 872.05L400.002 872.05C400.301 872.075 400.601 872.1 400.9 872.1H401.3C401.6 872.15 401.875 872.175 402.15 872.2C402.425 872.225 402.7 872.25 403 872.3H403.1C403.4 872.35 403.675 872.4 403.95 872.45C404.225 872.5 404.5 872.55 404.8 872.6C404.9 872.6 405.1 872.7 405.2 872.7C405.462 872.788 405.725 872.856 405.979 872.922L405.985 872.924L405.988 872.924C406.311 873.008 406.621 873.089 406.9 873.2H407C407.6 873.4 408.2 873.6 408.7 873.8C408.719 873.82 408.743 873.835 408.768 873.849C408.808 873.87 408.854 873.885 408.899 873.9C408.974 873.925 409.05 873.95 409.1 874C409.208 874.044 409.322 874.087 409.438 874.132C409.856 874.292 410.308 874.465 410.7 874.7C411.3 875 411.8 875.3 412.3 875.6C412.4 875.6 412.6 875.7 412.7 875.8C412.95 876 413.2 876.175 413.45 876.35C413.7 876.525 413.95 876.7 414.2 876.9C414.45 877.1 414.7 877.275 414.95 877.45C415.2 877.625 415.45 877.8 415.7 878C415.9 878 416 878.1 416.1 878.2C416.6 878.6 417.1 878.9 417.6 879.2C417.7 879.2 417.7 879.3 417.8 879.3C418.2 879.6 418.7 879.9 419.1 880.1C419.15 880.15 419.2 880.175 419.25 880.2C419.3 880.225 419.35 880.25 419.4 880.3C419.65 880.4 419.875 880.525 420.1 880.65C420.244 880.73 420.388 880.811 420.539 880.884C420.624 880.925 420.71 880.964 420.8 881C420.9 881 421 881.1 421.1 881.1L422.3 881.7C422.4 881.7 422.5 881.8 422.6 881.8C423 881.9 423.5 882.1 423.9 882.3C424 882.3 424.1 882.4 424.2 882.4C424.259 882.415 424.318 882.432 424.378 882.451C424.416 882.463 424.455 882.475 424.493 882.489C424.595 882.524 424.698 882.562 424.8 882.6C425 882.675 425.2 882.75 425.4 882.8C425.428 882.828 425.448 882.849 425.465 882.863C425.482 882.878 425.496 882.887 425.511 882.893C425.533 882.9 425.557 882.9 425.6 882.9C426 883.1 426.4 883.2 426.8 883.3C426.9 883.3 427 883.4 427.1 883.4L428.3 883.7C428.7 883.8 429 883.9 429.4 884C429.5 884.1 429.6 884.1 429.7 884.1C429.767 884.123 429.839 884.14 429.914 884.155C430.007 884.173 430.103 884.186 430.2 884.2C430.375 884.225 430.55 884.25 430.7 884.3H430.8C430.888 884.3 430.976 884.309 431.064 884.321C431.125 884.33 431.187 884.34 431.249 884.35L431.25 884.35C431.33 884.364 431.41 884.377 431.49 884.386C431.56 884.395 431.63 884.4 431.7 884.4H431.9C431.953 884.4 432.007 884.403 432.06 884.409C432.156 884.418 432.251 884.434 432.347 884.45L432.35 884.45L432.351 884.45C432.501 884.475 432.65 884.5 432.8 884.5H433C433.2 884.6 433.5 884.6 433.7 884.6H439.7C439.9 884.5 440.2 884.5 440.4 884.5H440.6C440.688 884.5 440.776 884.492 440.864 884.479C440.925 884.471 440.987 884.461 441.049 884.45L441.051 884.45C441.201 884.425 441.35 884.4 441.5 884.4H441.7C442 884.4 442.3 884.4 442.6 884.3H442.7C442.764 884.279 442.828 884.262 442.892 884.248C442.992 884.226 443.095 884.211 443.203 884.194C443.354 884.171 443.517 884.146 443.7 884.1C443.7 884 443.8 884 443.9 884C444.12 883.937 444.35 883.874 444.588 883.811C444.778 883.761 444.974 883.71 445.172 883.659C445.299 883.627 445.427 883.594 445.555 883.562C445.748 883.513 445.941 883.465 446.135 883.416L446.2 883.4C446.231 883.4 446.262 883.391 446.293 883.377C446.362 883.348 446.431 883.3 446.5 883.3C446.586 883.279 446.673 883.252 446.759 883.223C446.873 883.185 446.986 883.143 447.1 883.1C447.3 883.025 447.5 882.95 447.7 882.9C447.7 882.853 447.722 882.828 447.746 882.815C447.772 882.8 447.8 882.8 447.8 882.8C448.2 882.7 448.6 882.6 449 882.4C449.05 882.4 449.1 882.375 449.15 882.35C449.2 882.325 449.25 882.3 449.3 882.3C449.58 882.23 449.861 882.111 450.175 881.977L450.264 881.939C450.325 881.913 450.388 881.887 450.452 881.86C450.5 881.84 450.55 881.82 450.6 881.8C450.6 881.8 450.639 881.761 450.694 881.731C450.726 881.714 450.763 881.7 450.8 881.7L452 881.1C452.05 881.1 452.1 881.075 452.15 881.05C452.2 881.025 452.25 881 452.3 881C452.8 880.8 453.2 880.6 453.7 880.3C453.75 880.25 453.8 880.225 453.85 880.2C453.869 880.191 453.888 880.181 453.906 880.171C453.938 880.153 453.969 880.131 454 880.1C454.2 879.95 454.425 879.825 454.65 879.7C454.875 879.575 455.1 879.45 455.3 879.3C455.322 879.3 455.339 879.296 455.353 879.288C455.365 879.282 455.375 879.274 455.384 879.265C455.39 879.26 455.395 879.255 455.4 879.25C455.425 879.225 455.45 879.2 455.5 879.2C455.75 879.05 456 878.875 456.25 878.7C456.5 878.525 456.75 878.35 457 878.2C457.1 878.2 457.2 878.1 457.3 878C457.8 877.7 458.3 877.3 458.8 876.9C459.05 876.75 459.3 876.575 459.55 876.4C459.8 876.225 460.05 876.05 460.3 875.9C460.4 875.9 460.6 875.8 460.7 875.7C460.799 875.64 460.903 875.581 461.009 875.521C461.169 875.431 461.334 875.341 461.5 875.25C461.775 875.1 462.05 874.95 462.3 874.8H462.4C462.535 874.746 462.677 874.685 462.823 874.62C462.947 874.565 463.073 874.508 463.2 874.45C463.315 874.398 463.43 874.345 463.544 874.295C463.701 874.225 463.855 874.158 464 874.1C464.05 874.05 464.125 874.025 464.2 874C464.275 873.975 464.35 873.95 464.4 873.9C464.463 873.879 464.526 873.858 464.587 873.837C464.63 873.822 464.673 873.807 464.715 873.792C464.898 873.728 465.074 873.664 465.25 873.6C465.434 873.533 465.619 873.466 465.811 873.399C465.905 873.366 466.001 873.333 466.1 873.3H466.2C466.45 873.25 466.725 873.175 467 873.1C467.275 873.025 467.55 872.95 467.8 872.9C467.835 872.9 467.881 872.888 467.932 872.872C467.954 872.866 467.977 872.858 468 872.85C468.075 872.825 468.15 872.8 468.2 872.8C468.254 872.791 468.307 872.782 468.36 872.773C468.599 872.732 468.824 872.691 469.05 872.65C469.159 872.63 469.269 872.61 469.38 872.591C469.548 872.56 469.719 872.53 469.9 872.5H470C470.5 872.4 471 872.3 471.6 872.3H472C472.6 872.2 473.2 872.2 473.8 872.2H475.8C475.902 872.2 475.998 872.207 476.091 872.217C476.179 872.226 476.265 872.238 476.35 872.25C476.525 872.275 476.7 872.3 476.9 872.3C477.1 872.4 477.2 872.4 477.4 872.4C477.599 872.45 477.774 872.475 477.948 872.5L477.951 872.5C478.065 872.517 478.18 872.533 478.301 872.556C478.365 872.569 478.431 872.583 478.5 872.6C478.6 872.7 478.8 872.7 478.9 872.7L480.4 873H480.5C480.75 873.05 480.975 873.125 481.2 873.2C481.425 873.275 481.65 873.35 481.9 873.4C482 873.4 482.075 873.425 482.15 873.45C482.225 873.475 482.3 873.5 482.4 873.5C482.6 873.55 482.775 873.6 482.95 873.65C483.125 873.7 483.3 873.75 483.5 873.8C483.6 873.85 483.674 873.875 483.749 873.9L483.75 873.9C483.825 873.925 483.9 873.95 484 874C484.2 874.05 484.375 874.125 484.55 874.2C484.725 874.275 484.9 874.35 485.1 874.4C485.125 874.425 485.156 874.444 485.191 874.46C485.224 874.475 485.261 874.487 485.298 874.5L485.3 874.5C485.375 874.525 485.45 874.55 485.5 874.6C486 874.9 486.5 875.1 487 875.3H487.1C487.35 875.4 487.575 875.525 487.8 875.65C488.025 875.775 488.25 875.9 488.5 876C488.6 876 488.8 876.1 488.9 876.2C488.963 876.242 489.031 876.285 489.102 876.327C489.198 876.385 489.299 876.443 489.4 876.5C489.575 876.6 489.75 876.7 489.9 876.8C490 876.85 490.075 876.9 490.15 876.95C490.225 877 490.3 877.05 490.4 877.1C490.549 877.2 490.723 877.299 490.897 877.399L490.9 877.4L490.911 877.407C490.982 877.447 491.053 877.488 491.122 877.528C491.22 877.586 491.314 877.643 491.4 877.7C491.422 877.722 491.449 877.745 491.479 877.767C491.516 877.794 491.558 877.822 491.599 877.85L491.601 877.851C491.675 877.901 491.75 877.95 491.8 878C492.097 878.238 492.395 878.441 492.671 878.629C492.859 878.757 493.038 878.879 493.2 879C493.524 879.195 493.806 879.431 494.073 879.655C494.218 879.776 494.359 879.895 494.5 880C494.55 880.05 494.625 880.1 494.7 880.15C494.775 880.2 494.85 880.25 494.9 880.3C495.05 880.45 495.2 880.575 495.35 880.7C495.422 880.76 495.493 880.82 495.565 880.882C495.606 880.918 495.647 880.954 495.687 880.992C495.725 881.027 495.762 881.063 495.8 881.1L496.2 881.5C496.33 881.696 496.504 881.85 496.692 882.016C496.792 882.104 496.896 882.196 497 882.3L498.6 883.9C498.799 884.1 498.974 884.299 499.149 884.499L499.15 884.5C499.325 884.7 499.5 884.9 499.7 885.1L500 885.4C500.15 885.5 500.275 885.625 500.4 885.75C500.448 885.799 500.497 885.847 500.547 885.894C500.626 885.968 500.708 886.039 500.8 886.1C501 886.2 501.1 886.3 501.2 886.4C501.35 886.5 501.475 886.6 501.6 886.7C501.725 886.8 501.85 886.9 502 887C502 887.062 502.038 887.086 502.091 887.118C502.123 887.138 502.162 887.162 502.2 887.2C502.417 887.418 502.687 887.583 502.934 887.733C502.994 887.77 503.052 887.805 503.108 887.841C503.139 887.861 503.17 887.88 503.2 887.9C503.2 887.9 503.3 888 503.4 888C503.553 888.153 503.764 888.248 503.944 888.328L503.946 888.329C504.001 888.354 504.053 888.377 504.1 888.4C504.15 888.4 504.2 888.425 504.25 888.45C504.3 888.475 504.35 888.5 504.4 888.5C504.6 888.5 504.8 888.6 505 888.7C505.05 888.7 505.1 888.725 505.15 888.75C505.2 888.775 505.25 888.8 505.3 888.8C505.5 888.9 505.8 889 506.1 889C506.4 889.1 506.6 889.1 506.9 889.1H507.1C507.3 889 507.5 889 507.7 889H507.9C508.1 889 508.4 888.9 508.6 888.8C508.699 888.751 508.823 888.701 508.947 888.651L508.95 888.65L508.961 888.646C509.018 888.623 509.075 888.6 509.129 888.577C509.19 888.552 509.248 888.526 509.3 888.5C509.335 888.5 509.358 888.488 509.378 888.471C509.385 888.465 509.393 888.458 509.4 888.45C509.425 888.425 509.45 888.4 509.5 888.4C509.6 888.35 509.675 888.3 509.75 888.25C509.825 888.2 509.9 888.15 510 888.1C510.029 888.1 510.049 888.092 510.066 888.08C510.078 888.072 510.089 888.061 510.099 888.051C510.124 888.026 510.15 888 510.2 888L510.9 887.3C511 887.2 511.075 887.101 511.15 887.001C511.224 886.901 511.3 886.8 511.4 886.7C511.4 886.65 511.425 886.625 511.45 886.6C511.475 886.575 511.5 886.55 511.5 886.5C511.7 886.3 511.8 886.1 511.9 885.9C511.9 885.823 511.96 885.805 511.987 885.754C511.995 885.74 512 885.723 512 885.7C512.03 885.64 512.07 885.57 512.113 885.494C512.212 885.318 512.33 885.109 512.4 884.9C512.5 884.8 512.5 884.8 512.5 884.7L512.501 884.698C512.6 884.499 512.7 884.299 512.8 884C512.8 883.983 512.803 883.965 512.808 883.947C512.813 883.93 512.82 883.913 512.828 883.896C512.834 883.881 512.842 883.866 512.85 883.85C512.875 883.8 512.9 883.75 512.9 883.7C512.9 883.463 512.962 883.288 513.038 883.077C513.058 883.021 513.079 882.963 513.1 882.9C513.2 882.8 513.2 882.8 513.2 882.7C513.2 882.4 513.3 882 513.4 881.7V881.5C513.4 881.445 513.403 881.392 513.409 881.342C513.418 881.257 513.434 881.179 513.45 881.1C513.475 880.975 513.5 880.85 513.5 880.7V880.4C513.5 880.25 513.525 880.1 513.55 879.95C513.575 879.8 513.6 879.65 513.6 879.5V879.4Z" fill="#042d48"/><path d="M496.6 1015.7L496.602 1015.7C497.101 1015.8 497.601 1015.9 498.1 1015.9C498.25 1015.95 498.425 1015.98 498.6 1016C498.775 1016.03 498.95 1016.05 499.1 1016.1L499.11 1016.1C499.328 1016.15 499.546 1016.19 499.773 1016.23C500.063 1016.29 500.366 1016.34 500.7 1016.4C500.862 1016.45 501.025 1016.48 501.203 1016.51C501.354 1016.53 501.517 1016.55 501.7 1016.6C502 1016.65 502.275 1016.73 502.55 1016.8C502.825 1016.88 503.1 1016.95 503.4 1017C503.55 1017.05 503.674 1017.08 503.799 1017.1L503.8 1017.1C503.925 1017.13 504.05 1017.15 504.2 1017.2C505 1017.4 505.9 1017.7 506.7 1018C506.9 1018.05 507.075 1018.1 507.25 1018.15C507.425 1018.2 507.6 1018.25 507.8 1018.3C507.85 1018.3 507.925 1018.33 507.999 1018.35L508.001 1018.35C508.076 1018.38 508.15 1018.4 508.2 1018.4C508.35 1018.45 508.499 1018.48 508.649 1018.5L508.651 1018.5C508.801 1018.53 508.95 1018.55 509.1 1018.6C509.2 1018.6 509.275 1018.63 509.35 1018.65C509.424 1018.68 509.5 1018.7 509.6 1018.7C509.9 1018.8 510.2 1018.8 510.4 1018.8C510.5 1018.8 510.6 1018.83 510.7 1018.85C510.8 1018.88 510.9 1018.9 511 1018.9C511.15 1018.9 511.299 1018.93 511.449 1018.95L511.451 1018.95C511.601 1018.98 511.751 1019 511.9 1019C512.1 1019 512.3 1019 512.5 1019.1C512.65 1019.1 512.8 1019.13 512.949 1019.15C513.099 1019.18 513.25 1019.2 513.4 1019.2C513.6 1019.2 513.8 1019.2 514.1 1019.3C514.4 1019.3 514.7 1019.3 515 1019.4H521.9C522.199 1019.4 522.523 1019.38 522.848 1019.35L522.85 1019.35C523.038 1019.34 523.226 1019.32 523.409 1019.31C523.543 1019.3 523.674 1019.3 523.8 1019.3H524.4C525.2 1019.3 526 1019.2 526.8 1019.1H527.2C527.449 1019.1 527.674 1019.08 527.898 1019.05L527.9 1019.05C528.125 1019.03 528.35 1019 528.6 1019C528.8 1019 529 1018.9 529.3 1018.9C529.5 1018.9 529.7 1018.9 529.9 1018.8L532.3 1018.5H532.5C533.3 1018.4 534 1018.3 534.8 1018.1C534.89 1018.1 534.98 1018.08 535.079 1018.06C535.152 1018.04 535.231 1018.02 535.318 1018.01C535.374 1018.01 535.435 1018 535.5 1018C535.85 1017.95 536.225 1017.88 536.6 1017.8C536.975 1017.73 537.35 1017.65 537.7 1017.6C537.8 1017.6 537.9 1017.6 538 1017.5C538.4 1017.4 538.8 1017.33 539.2 1017.25L539.201 1017.25C539.6 1017.18 540 1017.1 540.4 1017C540.6 1017 540.8 1016.9 541 1016.8C541.35 1016.7 541.675 1016.63 542 1016.55C542.325 1016.48 542.65 1016.4 543 1016.3C543.1 1016.3 543.175 1016.28 543.25 1016.25L543.287 1016.24C543.35 1016.22 543.416 1016.2 543.5 1016.2L543.502 1016.2C544.301 1016 545.101 1015.8 545.8 1015.5C545.9 1015.45 546 1015.43 546.1 1015.4C546.141 1015.39 546.182 1015.38 546.222 1015.37C546.282 1015.35 546.341 1015.33 546.4 1015.3C547 1015.1 547.6 1014.9 548.3 1014.7C548.388 1014.66 548.476 1014.63 548.555 1014.61C548.656 1014.58 548.744 1014.56 548.8 1014.5C549.056 1014.39 549.324 1014.29 549.597 1014.2C549.698 1014.17 549.799 1014.13 549.9 1014.1C550.141 1014.02 550.382 1013.94 550.616 1013.85C550.746 1013.8 550.875 1013.75 551 1013.7C551.05 1013.65 551.125 1013.63 551.2 1013.6C551.275 1013.58 551.35 1013.55 551.4 1013.5C551.785 1013.37 552.17 1013.2 552.528 1013.05C552.624 1013 552.718 1012.96 552.81 1012.92C552.91 1012.88 553.007 1012.84 553.1 1012.8C553.166 1012.77 553.231 1012.73 553.293 1012.71C553.42 1012.65 553.533 1012.6 553.6 1012.6C554.3 1012.3 554.9 1012 555.6 1011.6C555.65 1011.6 555.7 1011.58 555.75 1011.55C555.8 1011.53 555.85 1011.5 555.9 1011.5C556.5 1011.2 556.999 1010.9 557.499 1010.6L557.5 1010.6C557.7 1010.5 557.8 1010.4 558 1010.3C558.154 1010.2 558.309 1010.1 558.461 1010.01C558.537 1009.96 558.612 1009.92 558.686 1009.87C559.046 1009.66 559.392 1009.45 559.7 1009.2L560.3 1008.6C560.3 1008.55 560.325 1008.53 560.35 1008.5C560.375 1008.48 560.4 1008.45 560.4 1008.4C560.4 1008.39 560.402 1008.37 560.406 1008.36C560.41 1008.35 560.414 1008.34 560.419 1008.34C560.428 1008.32 560.439 1008.31 560.45 1008.3C560.475 1008.28 560.5 1008.25 560.5 1008.2C560.5 1008.18 560.5 1008.17 560.501 1008.16C560.501 1008.15 560.501 1008.15 560.502 1008.14C560.507 1008.09 560.525 1008.08 560.6 1008C560.6 1007.96 560.613 1007.94 560.629 1007.92C560.64 1007.91 560.652 1007.9 560.664 1007.89C560.683 1007.87 560.7 1007.84 560.7 1007.8V1006.2C560.7 1006.16 560.7 1006.13 560.692 1006.11C560.682 1006.08 560.658 1006.06 560.6 1006C560.6 1005.96 560.6 1005.93 560.592 1005.91C560.587 1005.9 560.577 1005.88 560.561 1005.86C560.546 1005.85 560.527 1005.83 560.5 1005.8C560.5 1005.75 560.475 1005.73 560.45 1005.7C560.425 1005.68 560.4 1005.65 560.4 1005.6C560.4 1005.55 560.375 1005.53 560.35 1005.5C560.325 1005.48 560.3 1005.45 560.3 1005.4C560.3 1005.3 560.2 1005.3 560.2 1005.2C560.2 1005.15 560.175 1005.13 560.15 1005.1L560.142 1005.09C560.12 1005.07 560.1 1005.04 560.1 1005L560 1004.9C559.95 1004.9 559.925 1004.88 559.9 1004.85C559.875 1004.83 559.85 1004.8 559.8 1004.8C559.767 1004.8 559.744 1004.79 559.726 1004.77C559.716 1004.77 559.708 1004.76 559.7 1004.75C559.675 1004.73 559.65 1004.7 559.6 1004.7C559.56 1004.7 559.536 1004.68 559.516 1004.67C559.495 1004.65 559.477 1004.62 559.45 1004.61C559.436 1004.6 559.42 1004.6 559.4 1004.6C559.35 1004.6 559.325 1004.58 559.3 1004.55C559.275 1004.53 559.25 1004.5 559.2 1004.5C559.15 1004.5 559.125 1004.48 559.1 1004.45C559.075 1004.43 559.05 1004.4 559 1004.4C558.951 1004.4 558.926 1004.4 558.901 1004.39C558.876 1004.38 558.851 1004.35 558.8 1004.3H549.4C548.6 1004.3 547.8 1004.3 547 1004.2H546.9C546.512 1004.2 546.101 1004.18 545.678 1004.15H545.676C545.227 1004.13 544.763 1004.1 544.3 1004.1H543.8C543 1004.1 542.1 1004 541.2 1003.9H540.7C540.25 1003.85 539.8 1003.83 539.35 1003.8C538.9 1003.78 538.45 1003.75 538 1003.7H537.7L535 1003.4H534.6L534.356 1003.37C533.522 1003.28 532.62 1003.18 531.8 1003C531.6 1003 531.4 1002.9 531.2 1002.9C530.3 1002.8 529.3 1002.6 528.4 1002.4C528.3 1002.4 528.225 1002.38 528.15 1002.35C528.075 1002.33 528 1002.3 527.9 1002.3C527.155 1002.15 526.465 1002 525.747 1001.85C525.503 1001.8 525.255 1001.75 525 1001.7H524.9C523.9 1001.5 523 1001.3 522 1001C521.9 1001 521.825 1000.98 521.75 1000.95C521.717 1000.94 521.683 1000.93 521.647 1000.92C521.603 1000.91 521.555 1000.9 521.5 1000.9C520.6 1000.7 519.6 1000.4 518.7 1000.1C518.612 1000.06 518.525 1000.03 518.445 1000.01C518.344 999.981 518.256 999.957 518.2 999.9C517.75 999.75 517.275 999.6 516.8 999.45C516.325 999.3 515.85 999.15 515.4 999C515.3 999 515.2 998.9 515.1 998.9C514.537 998.713 513.973 998.486 513.434 998.268C513.112 998.139 512.799 998.013 512.5 997.9C512.466 997.9 512.433 997.889 512.399 997.874C512.383 997.867 512.366 997.859 512.35 997.85C512.3 997.825 512.25 997.8 512.2 997.8C511.3 997.4 510.4 997 509.6 996.6C509.572 996.586 509.546 996.572 509.521 996.558C509.498 996.546 509.477 996.534 509.457 996.522C509.339 996.454 509.247 996.4 509.1 996.4C508.905 996.303 508.704 996.205 508.5 996.106L508.494 996.103C507.863 995.797 507.203 995.477 506.6 995.1C506.5 995 506.3 994.9 506.2 994.9C505.801 994.651 505.376 994.401 504.952 994.151L504.95 994.15C504.71 994.009 504.471 993.868 504.235 993.727C504.054 993.618 503.874 993.509 503.7 993.4C502.801 992.801 502.001 992.301 501.201 991.801L501.2 991.8C501.05 991.7 500.925 991.625 500.8 991.55C500.675 991.475 500.55 991.4 500.4 991.3C500.17 991.147 499.939 991.008 499.714 990.872C499.354 990.655 499.008 990.447 498.7 990.2C498.55 990.1 498.425 990.025 498.3 989.95C498.236 989.912 498.171 989.873 498.103 989.831C498.04 989.791 497.973 989.749 497.9 989.7C497.6 989.55 497.3 989.375 497 989.2C496.7 989.025 496.4 988.85 496.1 988.7L495.5 988.4C495.1 988.2 494.725 988 494.35 987.8C493.975 987.6 493.6 987.4 493.2 987.2C493.132 987.132 493.017 987.11 492.92 987.072C492.874 987.054 492.832 987.032 492.8 987L491 986.1C490.9 986.05 490.775 986 490.65 985.95C490.525 985.9 490.4 985.85 490.3 985.8C490.05 985.7 489.8 985.575 489.55 985.45C489.413 985.382 489.276 985.313 489.139 985.249C489.026 985.196 488.913 985.146 488.8 985.1C488.6 985 488.4 984.9 488.1 984.8C487.8 984.7 487.525 984.575 487.25 984.45C486.975 984.325 486.7 984.2 486.4 984.1C486.375 984.1 486.349 984.094 486.322 984.084C486.305 984.078 486.288 984.071 486.269 984.063C486.2 984.035 486.117 984 486 984C485.3 983.7 484.7 983.5 484 983.3C483.903 983.252 483.829 983.227 483.756 983.202L483.75 983.2C483.675 983.175 483.6 983.15 483.5 983.1C483.284 983.014 483.068 982.946 482.86 982.881C482.587 982.795 482.327 982.714 482.1 982.6C482 982.55 481.9 982.525 481.8 982.5C481.7 982.475 481.6 982.45 481.5 982.4C481.3 982.35 481.075 982.275 480.85 982.2C480.625 982.125 480.4 982.05 480.2 982C480.1 982 480.025 981.975 479.95 981.95C479.875 981.925 479.8 981.9 479.7 981.9C479.1 981.7 478.6 981.6 478 981.5C477.4 981.4 476.9 981.3 476.4 981.2C476.333 981.2 476.277 981.189 476.229 981.174C476.193 981.163 476.161 981.15 476.132 981.138C476.083 981.117 476.042 981.1 476 981.1C475.813 981.053 475.625 981.029 475.448 981.005C475.247 980.978 475.059 980.953 474.9 980.9C474.7 980.9 474.6 980.9 474.4 980.8C474 980.7 473.7 980.7 473.3 980.7H472.9C472.651 980.7 472.426 980.675 472.202 980.651L472.199 980.65C471.974 980.625 471.75 980.6 471.5 980.6H468.4C468.211 980.6 468.023 980.623 467.824 980.646H467.822C467.6 980.673 467.364 980.7 467.1 980.7H466.8C466.65 980.7 466.5 980.725 466.35 980.75C466.2 980.775 466.05 980.8 465.9 980.8H465.6C465.463 980.835 465.337 980.857 465.216 980.876C465.16 980.885 465.105 980.893 465.05 980.9C464.875 980.925 464.7 980.95 464.5 981C464.458 981 464.433 981 464.411 981.008C464.382 981.018 464.358 981.043 464.3 981.1C464.237 981.121 464.179 981.142 464.123 981.162C463.912 981.238 463.737 981.3 463.5 981.3C463.45 981.3 463.4 981.325 463.35 981.35C463.3 981.375 463.25 981.4 463.2 981.4L462.3 981.7H462.2C462 981.8 461.7 981.9 461.5 982C461.45 982 461.425 982.025 461.4 982.05C461.386 982.064 461.372 982.078 461.354 982.088C461.34 982.095 461.323 982.1 461.3 982.1C461.2 982.15 461.075 982.225 460.95 982.3C460.825 982.375 460.7 982.45 460.6 982.5C459.33 983.248 458.059 984.107 456.747 984.994L456.742 984.997C456.3 985.296 455.853 985.598 455.4 985.9C455.1 986.1 454.775 986.3 454.45 986.5C454.125 986.7 453.8 986.9 453.5 987.1C453.2 987.3 452.9 987.475 452.6 987.65C452.3 987.825 452 988 451.7 988.2C451.572 988.264 451.455 988.328 451.341 988.392C451.276 988.428 451.213 988.464 451.15 988.5C450.975 988.6 450.8 988.7 450.6 988.8C448.8 989.8 446.9 990.8 444.9 991.5C444.2 991.8 443.501 992 442.801 992.2C440.701 992.8 438.4 993.2 435.9 993.2C433.6 993.2 431.5 992.9 429.5 992.3C429.151 992.201 428.826 992.101 428.501 992.001L428.499 992C428.174 991.9 427.85 991.8 427.5 991.7C427.1 991.6 426.7 991.4 426.3 991.2C424.3 990.4 422.5 989.5 420.7 988.4C420.374 988.205 420.058 988.009 419.746 987.813C419.58 987.709 419.415 987.605 419.25 987.5C418.775 987.2 418.3 986.9 417.8 986.6L415.1 984.8C413.8 983.9 412.5 983.1 411.2 982.3C411.1 982.25 410.975 982.175 410.85 982.1C410.725 982.025 410.6 981.95 410.5 981.9C410.478 981.9 410.461 981.896 410.447 981.888C410.434 981.882 410.424 981.873 410.414 981.864C410.409 981.86 410.405 981.855 410.4 981.85C410.375 981.825 410.35 981.8 410.3 981.8C410.2 981.75 410.075 981.7 409.95 981.65C409.877 981.621 409.804 981.592 409.736 981.563C409.688 981.542 409.642 981.521 409.6 981.5H409.5L408.6 981.2C408.5 981.2 408.4 981.1 408.4 981.1C408.338 981.08 408.28 981.059 408.224 981.039C408.013 980.963 407.837 980.9 407.6 980.9C407.5 980.9 407.5 980.9 407.4 980.8C407.1 980.7 406.7 980.6 406.3 980.6H406C405.7 980.5 405.4 980.5 405 980.5H404.7C404.511 980.5 404.323 980.478 404.124 980.455L404.122 980.454C403.9 980.428 403.664 980.4 403.4 980.4H400.3C400.111 980.4 399.9 980.423 399.678 980.446C399.429 980.472 399.164 980.5 398.9 980.5H398.5C398.361 980.5 398.2 980.522 398.028 980.545C397.924 980.559 397.816 980.573 397.706 980.584C397.605 980.594 397.503 980.6 397.4 980.6C397.2 980.6 397.1 980.6 396.9 980.7C396.7 980.75 396.525 980.775 396.35 980.8C396.175 980.825 396 980.85 395.8 980.9C395.7 980.9 395.625 980.925 395.55 980.95C395.475 980.975 395.4 981 395.3 981C395.05 981.05 394.775 981.1 394.5 981.15L394.489 981.152C394.218 981.202 393.947 981.251 393.7 981.3H393.6C393.35 981.35 393.075 981.425 392.8 981.5L392.797 981.501C392.523 981.576 392.249 981.651 392 981.7C391.8 981.7 391.601 981.8 391.401 981.9C391.001 982 390.6 982.1 390.2 982.3C390.1 982.35 390.001 982.375 389.901 982.4C389.801 982.425 389.7 982.45 389.6 982.5C389.214 982.578 388.888 982.714 388.529 982.865C388.423 982.909 388.314 982.955 388.2 983C388.1 983.05 388.025 983.075 387.95 983.1C387.875 983.125 387.8 983.15 387.7 983.2C387.4 983.3 387.075 983.425 386.75 983.55C386.425 983.675 386.1 983.8 385.8 983.9C385.75 983.95 385.675 983.975 385.601 984C385.548 984.018 385.494 984.036 385.45 984.062C385.432 984.073 385.415 984.086 385.4 984.1C385.292 984.144 385.179 984.187 385.063 984.232C384.645 984.392 384.192 984.565 383.8 984.8C383.748 984.827 383.688 984.853 383.626 984.879C383.569 984.903 383.509 984.927 383.45 984.95C383.325 985 383.2 985.05 383.1 985.1C382.6 985.3 382.1 985.5 381.6 985.8C381.5 985.85 381.375 985.9 381.25 985.95C381.125 986 381 986.05 380.9 986.1L379.1 987C379.05 987.05 378.975 987.075 378.9 987.1C378.825 987.125 378.75 987.15 378.7 987.2C378 987.6 377.2 988 376.4 988.4C376.2 988.5 376 988.6 375.8 988.8C375.2 989.1 374.6 989.4 374.1 989.8C373.95 989.9 373.825 989.975 373.7 990.05C373.575 990.125 373.45 990.2 373.3 990.3C373.149 990.376 373.005 990.458 372.863 990.543C372.723 990.627 372.587 990.714 372.45 990.8C372.175 990.975 371.9 991.15 371.6 991.3C371.45 991.4 371.325 991.475 371.2 991.55C371.075 991.625 370.95 991.7 370.8 991.8C370.4 992.05 369.975 992.325 369.55 992.6C369.125 992.875 368.7 993.15 368.3 993.4C367.5 993.9 366.7 994.4 365.8 994.9C365.7 995 365.5 995.1 365.4 995.1C364.6 995.6 363.8 996 362.9 996.4C362.875 996.413 362.851 996.426 362.829 996.438C362.804 996.452 362.78 996.466 362.757 996.479C362.639 996.547 362.547 996.6 362.4 996.6C361.951 996.8 361.526 997 361.102 997.2L361.1 997.2C360.675 997.4 360.25 997.6 359.8 997.8C359.75 997.8 359.7 997.825 359.65 997.85C359.6 997.875 359.55 997.9 359.5 997.9C358.84 998.194 358.179 998.434 357.558 998.659C357.333 998.741 357.113 998.821 356.9 998.9C356.84 998.9 356.78 998.936 356.72 998.965C356.68 998.984 356.64 999 356.6 999C355.7 999.3 354.8 999.6 353.8 999.9C353.7 999.95 353.626 999.975 353.551 1000C353.476 1000.03 353.4 1000.05 353.3 1000.1C352.781 1000.27 352.262 1000.41 351.723 1000.56L351.721 1000.56L351.719 1000.56C351.325 1000.67 350.922 1000.77 350.5 1000.9C350.4 1000.9 350.325 1000.93 350.251 1000.95C350.176 1000.98 350.1 1001 350 1001C349.5 1001.1 349.025 1001.23 348.55 1001.35C348.075 1001.48 347.6 1001.6 347.1 1001.7H347C346.5 1001.8 346.025 1001.9 345.55 1002C345.075 1002.1 344.6 1002.2 344.1 1002.3C344.027 1002.3 343.902 1002.35 343.8 1002.38C343.762 1002.39 343.727 1002.4 343.7 1002.4C343.25 1002.5 342.775 1002.58 342.3 1002.65C341.825 1002.73 341.35 1002.8 340.9 1002.9C340.816 1002.9 340.75 1002.92 340.686 1002.94C340.638 1002.95 340.591 1002.97 340.539 1002.98C340.497 1002.99 340.452 1003 340.4 1003C339.95 1003.05 339.475 1003.13 339 1003.2C338.525 1003.28 338.05 1003.35 337.6 1003.4H337.2L334.5 1003.7H334.3C333.4 1003.8 332.5 1003.9 331.6 1003.9H331.1C330.651 1003.95 330.227 1003.98 329.803 1004L329.8 1004C329.375 1004.03 328.95 1004.05 328.5 1004.1H328.1C327.637 1004.1 327.201 1004.13 326.777 1004.15H326.775C326.376 1004.18 325.988 1004.2 325.6 1004.2H325.4C324.6 1004.2 323.8 1004.2 323 1004.3H313.6C313.5 1004.3 313.5 1004.3 313.4 1004.4C313.35 1004.4 313.325 1004.43 313.3 1004.45C313.275 1004.48 313.25 1004.5 313.2 1004.5C313.1 1004.5 313.1 1004.5 313 1004.6C312.95 1004.6 312.925 1004.63 312.9 1004.65C312.875 1004.68 312.85 1004.7 312.8 1004.7C312.75 1004.7 312.725 1004.73 312.701 1004.75C312.676 1004.77 312.65 1004.8 312.6 1004.8C312.55 1004.8 312.525 1004.83 312.5 1004.85C312.475 1004.88 312.45 1004.9 312.4 1004.9L312.3 1005C312.2 1005.1 312.2 1005.1 312.2 1005.2L312.1 1005.3C312.1 1005.38 312.043 1005.39 312.015 1005.44C312.006 1005.46 312 1005.48 312 1005.5C312 1005.54 311.984 1005.56 311.965 1005.59C311.952 1005.6 311.938 1005.61 311.926 1005.63C311.918 1005.64 311.911 1005.65 311.906 1005.66C311.902 1005.67 311.9 1005.69 311.9 1005.7C311.9 1005.75 311.875 1005.78 311.85 1005.8C311.825 1005.83 311.8 1005.85 311.8 1005.9C311.8 1006 311.8 1006 311.7 1006.1C311.7 1006.2 311.7 1006.2 311.6 1006.3V1007.7C311.6 1007.75 311.625 1007.78 311.65 1007.8C311.675 1007.83 311.7 1007.85 311.7 1007.9C311.7 1008 311.7 1008 311.8 1008.1C311.8 1008.15 311.825 1008.18 311.85 1008.2C311.875 1008.23 311.9 1008.25 311.9 1008.3C311.9 1008.3 311.9 1008.34 311.923 1008.37C311.937 1008.39 311.961 1008.4 312 1008.4C312.038 1008.44 312.062 1008.48 312.082 1008.51C312.115 1008.56 312.138 1008.6 312.2 1008.6L312.3 1008.7C312.4 1008.8 312.5 1008.9 312.7 1009C313.008 1009.25 313.354 1009.45 313.714 1009.67C313.939 1009.81 314.17 1009.95 314.4 1010.1C314.5 1010.15 314.575 1010.2 314.65 1010.25C314.725 1010.3 314.8 1010.35 314.9 1010.4C315.15 1010.55 315.425 1010.7 315.7 1010.85C315.975 1011 316.25 1011.15 316.5 1011.3C316.6 1011.3 316.7 1011.4 316.7 1011.4C316.893 1011.5 317.097 1011.59 317.307 1011.69C317.751 1011.9 318.225 1012.13 318.7 1012.4C318.9 1012.5 319 1012.6 319.2 1012.6C319.8 1012.9 320.3 1013.1 320.9 1013.3C320.95 1013.35 321.025 1013.38 321.1 1013.4C321.175 1013.43 321.25 1013.45 321.3 1013.5C322 1013.8 322.7 1014.1 323.5 1014.3C323.6 1014.35 323.675 1014.38 323.749 1014.4L323.751 1014.4C323.826 1014.43 323.9 1014.45 324 1014.5C324.6 1014.7 325.2 1014.9 325.9 1015.1C325.988 1015.14 326.075 1015.17 326.155 1015.19C326.256 1015.22 326.344 1015.24 326.4 1015.3C326.8 1015.4 327.175 1015.53 327.55 1015.65C327.925 1015.78 328.3 1015.9 328.7 1016C328.75 1016 328.825 1016.03 328.899 1016.05C328.945 1016.07 328.991 1016.08 329.031 1016.09C329.057 1016.1 329.081 1016.1 329.1 1016.1C329.45 1016.2 329.775 1016.28 330.1 1016.35C330.425 1016.43 330.75 1016.5 331.1 1016.6C331.2 1016.6 331.3 1016.63 331.399 1016.65C331.46 1016.67 331.521 1016.68 331.581 1016.69C331.621 1016.7 331.66 1016.7 331.7 1016.7C332.5 1016.9 333.3 1017.1 334.1 1017.2C334.147 1017.2 334.194 1017.2 334.241 1017.21C334.294 1017.22 334.347 1017.25 334.4 1017.3C334.75 1017.35 335.125 1017.43 335.5 1017.5L335.504 1017.5C335.878 1017.58 336.251 1017.65 336.6 1017.7C336.7 1017.7 336.8 1017.73 336.9 1017.75C337 1017.78 337.1 1017.8 337.2 1017.8C337.599 1017.85 337.998 1017.93 338.397 1018L338.403 1018C338.802 1018.08 339.201 1018.15 339.6 1018.2H339.7L342.1 1018.5C342.3 1018.5 342.5 1018.5 342.7 1018.6C342.95 1018.65 343.2 1018.68 343.45 1018.7C343.7 1018.73 343.95 1018.75 344.2 1018.8C344.4 1018.8 344.6 1018.8 344.8 1018.9H345.1C345.322 1018.93 345.544 1018.95 345.763 1018.96C345.928 1018.98 346.09 1018.99 346.251 1019C346.651 1019.02 347.039 1019.05 347.4 1019.1H348C348.299 1019.1 348.623 1019.13 348.948 1019.15L348.953 1019.15C349.277 1019.18 349.601 1019.2 349.9 1019.2H356.7C357 1019.2 357.3 1019.2 357.6 1019.1C357.8 1019.1 358.1 1019.1 358.3 1019C358.45 1019 358.599 1018.98 358.749 1018.95L358.75 1018.95C358.9 1018.93 359.05 1018.9 359.2 1018.9C359.4 1018.9 359.6 1018.9 359.8 1018.8C359.965 1018.8 360.13 1018.77 360.279 1018.74C360.4 1018.72 360.51 1018.7 360.6 1018.7C360.7 1018.7 360.8 1018.68 360.9 1018.65C360.947 1018.64 360.993 1018.63 361.04 1018.62C361.093 1018.61 361.147 1018.6 361.2 1018.6C361.35 1018.6 361.475 1018.58 361.6 1018.55C361.725 1018.53 361.85 1018.5 362 1018.5C362.117 1018.5 362.234 1018.47 362.332 1018.44C362.4 1018.42 362.459 1018.4 362.5 1018.4C362.637 1018.35 362.775 1018.33 362.903 1018.31C363.054 1018.28 363.192 1018.25 363.3 1018.2C363.35 1018.2 363.425 1018.18 363.5 1018.15C363.539 1018.14 363.577 1018.12 363.612 1018.12C363.646 1018.11 363.676 1018.1 363.7 1018.1C364.1 1018 364.5 1017.9 364.8 1017.8C365.2 1017.65 365.625 1017.53 366.05 1017.4C366.475 1017.28 366.9 1017.15 367.3 1017C367.438 1016.95 367.575 1016.93 367.703 1016.91C367.793 1016.89 367.879 1016.88 367.956 1016.85C368.008 1016.84 368.056 1016.82 368.1 1016.8C368.4 1016.75 368.675 1016.68 368.95 1016.6C369.225 1016.53 369.5 1016.45 369.8 1016.4C369.95 1016.35 370.125 1016.33 370.3 1016.3C370.475 1016.28 370.65 1016.25 370.8 1016.2L372.3 1015.9C372.45 1015.85 372.625 1015.83 372.8 1015.8C372.975 1015.78 373.15 1015.75 373.3 1015.7C373.8 1015.6 374.3 1015.5 374.8 1015.5C375.2 1015.4 375.5 1015.4 375.9 1015.4C376.15 1015.35 376.4 1015.33 376.65 1015.3C376.9 1015.28 377.15 1015.25 377.4 1015.2C377.6 1015.2 377.774 1015.18 377.949 1015.15L377.95 1015.15C378.125 1015.13 378.3 1015.1 378.5 1015.1C378.75 1015.1 378.999 1015.08 379.248 1015.05L379.252 1015.05C379.501 1015.03 379.751 1015 380 1015C380.3 1015 380.7 1015 381 1014.9H386.3C386.7 1014.9 387.1 1014.9 387.4 1015C387.649 1015 387.924 1015.03 388.198 1015.05L388.2 1015.05C388.475 1015.08 388.75 1015.1 389 1015.1C389.2 1015.1 389.4 1015.13 389.6 1015.15C389.8 1015.18 390 1015.2 390.2 1015.2C390.45 1015.25 390.7 1015.28 390.95 1015.3C391.2 1015.33 391.45 1015.35 391.7 1015.4C391.9 1015.45 392.099 1015.48 392.299 1015.5L392.3 1015.5C392.5 1015.53 392.7 1015.55 392.9 1015.6L394.4 1015.9C394.588 1015.95 394.775 1015.97 394.952 1016C395.153 1016.02 395.341 1016.05 395.5 1016.1L397 1016.4C397.2 1016.45 397.375 1016.5 397.55 1016.55C397.725 1016.6 397.9 1016.65 398.1 1016.7C398.299 1016.74 398.514 1016.8 398.732 1016.85L398.9 1016.9C399.175 1016.98 399.45 1017.05 399.7 1017.1C400 1017.2 400.4 1017.3 400.7 1017.4L400.703 1017.4C401.302 1017.6 401.901 1017.8 402.4 1018C402.7 1018.1 403 1018.2 403.2 1018.3C404.1 1018.6 404.9 1018.9 405.8 1019.3C406 1019.35 406.175 1019.43 406.35 1019.5L406.351 1019.5C406.526 1019.58 406.701 1019.65 406.9 1019.7C408.4 1020.3 409.9 1020.8 411.5 1021.3C411.9 1021.45 412.3 1021.58 412.7 1021.7C413.1 1021.83 413.5 1021.95 413.9 1022.1C414.3 1022.2 414.7 1022.3 415.1 1022.5C415.35 1022.6 415.625 1022.68 415.9 1022.75C416.048 1022.79 416.196 1022.83 416.341 1022.88C416.464 1022.91 416.585 1022.95 416.7 1023L420 1023.9L422.4 1024.5C422.676 1024.57 422.94 1024.64 423.2 1024.71L423.55 1024.8C423.77 1024.86 423.99 1024.92 424.215 1024.98C424.373 1025.02 424.535 1025.06 424.7 1025.1C425.4 1025.3 426.2 1025.5 426.8 1025.6C427.15 1025.7 427.475 1025.78 427.8 1025.85C428.125 1025.93 428.45 1026 428.8 1026.1C429.7 1026.3 430.6 1026.5 431.4 1026.7C431.9 1026.8 432.4 1026.9 432.8 1027C433.2 1027.1 433.6 1027.2 433.9 1027.2C434.7 1027.4 435.1 1027.4 435.1 1027.4C435.1 1027.4 435.3 1027.4 435.8 1027.3C435.842 1027.3 435.9 1027.28 435.969 1027.26C436.066 1027.23 436.183 1027.2 436.3 1027.2H436.5C436.669 1027.14 436.806 1027.12 436.964 1027.09C437.088 1027.07 437.225 1027.04 437.4 1027C437.508 1026.95 437.646 1026.92 437.797 1026.89C437.925 1026.87 438.062 1026.85 438.2 1026.8C438.4 1026.8 438.7 1026.7 438.9 1026.6L438.906 1026.6C439.704 1026.4 440.503 1026.2 441.5 1026C443.1 1025.6 444.8 1025.2 446.7 1024.8C447.2 1024.7 447.7 1024.6 448.2 1024.4C448.9 1024.2 449.6 1024 450.3 1023.9L453.6 1023C453.85 1022.9 454.125 1022.83 454.4 1022.75C454.675 1022.68 454.95 1022.6 455.2 1022.5C455.45 1022.4 455.725 1022.33 456 1022.25C456.275 1022.18 456.55 1022.1 456.8 1022C457.051 1021.92 457.284 1021.85 457.507 1021.79C457.818 1021.7 458.109 1021.62 458.4 1021.5C458.55 1021.45 458.675 1021.4 458.8 1021.35C458.925 1021.3 459.05 1021.25 459.2 1021.2C459.99 1020.96 460.781 1020.68 461.548 1020.41L461.55 1020.4C462.045 1020.23 462.53 1020.06 463 1019.9L463.9 1019.6L464.5 1019.3C464.682 1019.23 464.87 1019.16 465.061 1019.08C465.184 1019.03 465.308 1018.98 465.434 1018.93C465.973 1018.72 466.537 1018.49 467.1 1018.3C467.4 1018.2 467.7 1018.1 467.9 1018C468.5 1017.8 469.1 1017.6 469.6 1017.4C469.75 1017.35 469.925 1017.3 470.1 1017.25C470.199 1017.22 470.297 1017.19 470.391 1017.17C470.464 1017.14 470.535 1017.12 470.6 1017.1C471.03 1016.93 471.534 1016.83 471.985 1016.74C472.058 1016.73 472.13 1016.71 472.2 1016.7C472.4 1016.65 472.575 1016.6 472.75 1016.55C472.925 1016.5 473.1 1016.45 473.3 1016.4L473.31 1016.4C473.807 1016.3 474.304 1016.2 474.9 1016.1C475.088 1016.05 475.275 1016.03 475.452 1016.01C475.653 1015.98 475.841 1015.95 476 1015.9L477.5 1015.6C477.688 1015.55 477.875 1015.53 478.052 1015.51C478.253 1015.48 478.441 1015.45 478.6 1015.4C478.862 1015.35 479.125 1015.32 479.401 1015.3C479.652 1015.27 479.915 1015.25 480.2 1015.2C480.4 1015.2 480.6 1015.18 480.8 1015.15L480.802 1015.15C481.001 1015.13 481.201 1015.1 481.4 1015.1C481.579 1015.1 481.771 1015.09 481.966 1015.07C482.044 1015.06 482.122 1015.06 482.2 1015.05C482.475 1015.03 482.75 1015 483 1015C483.4 1015 483.8 1015 484.1 1014.9H489.4C489.7 1014.9 490.1 1014.9 490.4 1015C490.65 1015 490.899 1015.03 491.148 1015.05L491.152 1015.05C491.401 1015.08 491.651 1015.1 491.9 1015.1C492.05 1015.1 492.224 1015.13 492.399 1015.15L492.402 1015.15C492.576 1015.18 492.751 1015.2 492.9 1015.2C493.15 1015.25 493.4 1015.28 493.65 1015.3C493.9 1015.33 494.15 1015.35 494.4 1015.4C495.001 1015.48 495.409 1015.53 495.708 1015.56C496.156 1015.62 496.36 1015.64 496.6 1015.7Z" fill="#042d48"/><path d="M495.25 1049.45C495.275 1049.5 495.3 1049.55 495.3 1049.6C495.321 1049.62 495.337 1049.64 495.356 1049.65C495.429 1049.7 495.543 1049.68 496.1 1049.6V1050.2C496.1 1050.4 496.1 1050.6 496 1050.8C495.9 1050.9 495.9 1051 495.9 1051C495.7 1051.3 495.6 1051.6 495.5 1052C495.45 1052.1 495.425 1052.18 495.4 1052.25C495.375 1052.33 495.35 1052.4 495.3 1052.5C495.226 1052.72 495.151 1052.89 495.076 1053.09C495.051 1053.15 495.026 1053.22 495 1053.3C495 1053.5 494.9 1053.7 494.8 1053.9C494.7 1054.2 494.6 1054.4 494.5 1054.7L494.2 1055.3C494 1055.6 493.9 1055.9 493.8 1056.2C493.7 1056.5 493.6 1056.7 493.5 1056.9C493.45 1057.05 493.375 1057.2 493.3 1057.35C493.225 1057.5 493.15 1057.65 493.1 1057.8C493.05 1057.9 493 1058.03 492.95 1058.15C492.9 1058.28 492.85 1058.4 492.8 1058.5C492.7 1058.8 492.6 1059.1 492.4 1059.4C492.247 1059.55 492.153 1059.76 492.072 1059.94C492.047 1060 492.024 1060.05 492 1060.1C491.9 1060.3 491.9 1060.4 491.8 1060.5L491.5 1061.1C491.45 1061.25 491.375 1061.38 491.3 1061.5C491.225 1061.63 491.15 1061.75 491.1 1061.9C490.9 1062.3 490.8 1062.6 490.6 1062.9C490.55 1063.05 490.475 1063.18 490.4 1063.3C490.325 1063.43 490.25 1063.55 490.2 1063.7C490.1 1063.85 490 1064.03 489.9 1064.2C489.8 1064.38 489.7 1064.55 489.6 1064.7C489.4 1065 489.3 1065.2 489.1 1065.5C489 1065.65 488.9 1065.83 488.8 1066C488.7 1066.18 488.6 1066.35 488.5 1066.5C488.4 1066.7 488.2 1067 488 1067.3C487.9 1067.45 487.8 1067.63 487.7 1067.8C487.6 1067.98 487.5 1068.15 487.4 1068.3L486.8 1069.2C486.7 1069.35 486.575 1069.53 486.45 1069.7C486.325 1069.88 486.2 1070.05 486.1 1070.2L485.5 1071.1C485.3 1071.4 485 1071.8 484.8 1072.1C484.5 1072.4 484.3 1072.7 484.1 1073C483.95 1073.15 483.825 1073.33 483.7 1073.5C483.575 1073.68 483.45 1073.85 483.3 1074C483.2 1074.15 483.075 1074.3 482.95 1074.45C482.825 1074.6 482.7 1074.75 482.6 1074.9C482.4 1075.3 482.1 1075.6 481.8 1075.9C481.604 1076.03 481.451 1076.2 481.284 1076.39C481.196 1076.49 481.104 1076.6 481 1076.7C480.701 1077.1 480.401 1077.4 480.102 1077.7L480.1 1077.7C479.904 1077.83 479.751 1078 479.584 1078.19C479.496 1078.29 479.404 1078.4 479.3 1078.5L478.4 1079.4C478.25 1079.55 478.1 1079.68 477.95 1079.8C477.8 1079.93 477.65 1080.05 477.5 1080.2C477.35 1080.35 477.175 1080.5 477 1080.65C476.825 1080.8 476.65 1080.95 476.5 1081.1C476.35 1081.25 476.2 1081.38 476.05 1081.5C475.9 1081.63 475.75 1081.75 475.6 1081.9C475.45 1082.05 475.275 1082.2 475.1 1082.35C474.925 1082.5 474.75 1082.65 474.6 1082.8C474.2 1083.1 473.9 1083.3 473.6 1083.6C473.4 1083.75 473.225 1083.88 473.05 1084C472.875 1084.13 472.7 1084.25 472.5 1084.4C472.275 1084.55 471.994 1084.76 471.741 1084.93C471.656 1084.99 471.575 1085.05 471.5 1085.1C471.313 1085.29 471.087 1085.44 470.847 1085.59C470.701 1085.69 470.551 1085.79 470.4 1085.9C470.2 1086 470.025 1086.13 469.85 1086.25C469.675 1086.38 469.5 1086.5 469.3 1086.6C469.1 1086.7 468.9 1086.83 468.7 1086.95C468.5 1087.08 468.3 1087.2 468.1 1087.3C467.7 1087.6 467.4 1087.8 467 1088C466.693 1088.12 466.423 1088.28 466.168 1088.44C466.008 1088.53 465.854 1088.62 465.7 1088.7L464.5 1089.3C464.1 1089.5 463.6 1089.7 463.2 1089.9C462.801 1090 462.401 1090.2 462.002 1090.4L462 1090.4C461.75 1090.5 461.525 1090.6 461.3 1090.7C461.075 1090.8 460.85 1090.9 460.6 1091C460.4 1091.1 460.175 1091.18 459.95 1091.25C459.725 1091.33 459.5 1091.4 459.3 1091.5C459.073 1091.61 458.814 1091.7 458.54 1091.78C458.332 1091.85 458.116 1091.91 457.9 1092C457.73 1092.04 457.561 1092.1 457.383 1092.17C457.143 1092.25 456.888 1092.34 456.6 1092.4C456.35 1092.45 456.1 1092.53 455.85 1092.6C455.6 1092.68 455.35 1092.75 455.1 1092.8C454.6 1093 454.2 1093.1 453.7 1093.2C453.2 1093.3 452.6 1093.4 452.1 1093.5L450.6 1093.8C450 1093.9 449.5 1094 448.9 1094.1C448.65 1094.15 448.4 1094.18 448.15 1094.2C447.9 1094.23 447.65 1094.25 447.4 1094.3C447.14 1094.35 446.852 1094.38 446.552 1094.4C446.275 1094.43 445.988 1094.45 445.7 1094.5C445.45 1094.5 445.175 1094.53 444.9 1094.55C444.625 1094.58 444.35 1094.6 444.1 1094.6C443.5 1094.7 442.9 1094.7 442.3 1094.7H440.7C440.15 1094.7 439.6 1094.68 439.05 1094.65C438.5 1094.63 437.95 1094.6 437.4 1094.6C436 1094.5 434.8 1094.4 433.5 1094.3C432.2 1094.2 431 1094.1 429.8 1093.9C425 1093.2 420.6 1092.2 416.6 1090.8C412.6 1089.4 409 1087.8 405.8 1085.9C393.7 1078.8 386.6 1068.8 382.6 1060.6C382.6 1060.55 382.575 1060.53 382.55 1060.5C382.525 1060.48 382.5 1060.45 382.5 1060.4L382.499 1060.4C382 1059.4 381.5 1058.4 381.1 1057.5C380.978 1057.2 380.857 1056.9 380.737 1056.6C380.265 1055.44 379.819 1054.34 379.5 1053.3C379.2 1052.5 378.9 1051.7 378.7 1051C378.6 1050.9 378.6 1050.7 378.6 1050.5V1050.3C378.7 1050.2 378.7 1050.1 378.7 1050C378.8 1049.9 378.8 1049.9 378.8 1049.8C378.8 1049.7 378.8 1049.6 378.9 1049.5L379 1049.4C379 1049.3 379.1 1049.2 379.2 1049.1L379.3 1049C379.35 1048.95 379.425 1048.9 379.5 1048.85C379.575 1048.8 379.65 1048.75 379.7 1048.7H379.8C379.874 1048.7 380.004 1048.65 380.106 1048.62C380.142 1048.61 380.174 1048.6 380.2 1048.6H380.9C381.1 1048.6 381.2 1048.6 381.4 1048.7L381.402 1048.7C381.601 1048.8 381.801 1048.9 382.1 1049C382.1 1049 382.2 1049.1 382.3 1049.1L382.9 1049.4C383 1049.4 383.1 1049.5 383.2 1049.5L383.8 1049.8C383.85 1049.8 383.9 1049.83 383.95 1049.85C384 1049.88 384.05 1049.9 384.1 1049.9C384.3 1050 384.6 1050.1 384.9 1050.2H385C385.3 1050.3 385.7 1050.5 386 1050.6C386.1 1050.6 386.2 1050.7 386.3 1050.7C386.4 1050.75 386.525 1050.8 386.65 1050.85C386.775 1050.9 386.9 1050.95 387 1051C387.05 1051.05 387.125 1051.08 387.2 1051.1C387.275 1051.13 387.35 1051.15 387.4 1051.2C387.5 1051.25 387.625 1051.3 387.75 1051.35C387.875 1051.4 388 1051.45 388.1 1051.5C388.15 1051.55 388.225 1051.58 388.3 1051.6C388.375 1051.63 388.45 1051.65 388.5 1051.7L389.4 1052C389.45 1052 389.5 1052.03 389.55 1052.05C389.6 1052.08 389.65 1052.1 389.7 1052.1C389.9 1052.15 390.1 1052.23 390.3 1052.3C390.5 1052.38 390.7 1052.45 390.9 1052.5C390.95 1052.5 391.025 1052.53 391.1 1052.55C391.175 1052.58 391.25 1052.6 391.3 1052.6L392.2 1052.9C392.3 1052.95 392.375 1052.98 392.45 1053C392.525 1053.03 392.6 1053.05 392.7 1053.1C392.9 1053.2 393.2 1053.3 393.5 1053.4C393.548 1053.45 393.618 1053.47 393.7 1053.5C393.791 1053.52 393.895 1053.55 394 1053.6C394.15 1053.65 394.325 1053.7 394.5 1053.75C394.675 1053.8 394.85 1053.85 395 1053.9C395.05 1053.9 395.125 1053.93 395.2 1053.95C395.275 1053.98 395.35 1054 395.4 1054C395.65 1054.05 395.875 1054.13 396.1 1054.2C396.325 1054.28 396.55 1054.35 396.8 1054.4C396.9 1054.4 396.975 1054.43 397.05 1054.45C397.125 1054.48 397.2 1054.5 397.3 1054.5C397.473 1054.56 397.679 1054.62 397.88 1054.67C398.028 1054.72 398.173 1054.76 398.3 1054.8C398.4 1054.85 398.5 1054.88 398.6 1054.9C398.7 1054.93 398.8 1054.95 398.9 1055C399.05 1055.05 399.225 1055.1 399.4 1055.15C399.575 1055.2 399.75 1055.25 399.9 1055.3C400 1055.35 400.1 1055.38 400.2 1055.4C400.3 1055.43 400.4 1055.45 400.5 1055.5C400.9 1055.6 401.2 1055.7 401.6 1055.8C401.642 1055.8 401.7 1055.82 401.769 1055.84C401.866 1055.87 401.983 1055.9 402.1 1055.9C402.35 1055.95 402.625 1056.03 402.9 1056.1C403.175 1056.18 403.45 1056.25 403.7 1056.3C403.8 1056.3 403.875 1056.33 403.95 1056.35C404.025 1056.38 404.1 1056.4 404.2 1056.4L405.4 1056.7C405.532 1056.74 405.644 1056.77 405.745 1056.79C405.875 1056.82 405.988 1056.84 406.1 1056.9C406.431 1056.9 406.694 1056.97 407.002 1057.05C407.066 1057.07 407.132 1057.08 407.2 1057.1C407.3 1057.15 407.425 1057.18 407.55 1057.2C407.675 1057.23 407.8 1057.25 407.9 1057.3L409.1 1057.6C409.2 1057.6 409.3 1057.63 409.4 1057.65C409.5 1057.68 409.6 1057.7 409.7 1057.7C410.3 1057.9 410.9 1058 411.5 1058.1C411.55 1058.1 411.625 1058.13 411.7 1058.15C411.775 1058.18 411.85 1058.2 411.9 1058.2L413.4 1058.5C413.511 1058.5 413.653 1058.53 413.791 1058.56C413.902 1058.58 414.011 1058.6 414.1 1058.6C414.335 1058.65 414.547 1058.67 414.748 1058.7C414.975 1058.72 415.188 1058.75 415.4 1058.8C415.5 1058.8 415.625 1058.83 415.75 1058.85C415.875 1058.88 416 1058.9 416.1 1058.9C416.35 1058.95 416.575 1058.98 416.8 1059C417.025 1059.03 417.25 1059.05 417.5 1059.1C417.6 1059.1 417.7 1059.13 417.8 1059.15C417.9 1059.18 418 1059.2 418.1 1059.2C418.7 1059.3 419.4 1059.4 420.1 1059.5H420.4C420.7 1059.55 421 1059.58 421.3 1059.6C421.6 1059.63 421.9 1059.65 422.2 1059.7C422.4 1059.8 422.7 1059.8 422.9 1059.8C423.089 1059.8 423.3 1059.82 423.523 1059.85C423.772 1059.87 424.036 1059.9 424.3 1059.9C424.6 1060 424.8 1060 425.1 1060C425.35 1060 425.6 1060.03 425.85 1060.05C426.1 1060.08 426.35 1060.1 426.6 1060.1C426.8 1060.2 427.1 1060.2 427.3 1060.2C427.65 1060.2 428.025 1060.23 428.4 1060.25C428.775 1060.28 429.15 1060.3 429.5 1060.3C429.85 1060.3 430.225 1060.33 430.6 1060.35C430.975 1060.38 431.35 1060.4 431.7 1060.4H440.5C440.9 1060.4 441.3 1060.38 441.7 1060.35C442.1 1060.33 442.5 1060.3 442.9 1060.3H443.5C444 1060.25 444.475 1060.23 444.95 1060.2C445.425 1060.18 445.9 1060.15 446.4 1060.1H447C447.413 1060.05 447.825 1060.02 448.251 1060C448.652 1059.97 449.064 1059.95 449.5 1059.9H450C450.9 1059.8 451.9 1059.7 452.9 1059.6C453 1059.6 453.1 1059.58 453.2 1059.55C453.3 1059.53 453.4 1059.5 453.5 1059.5C454.4 1059.3 455.3 1059.2 456.2 1059.1C456.4 1059 456.5 1059 456.7 1059C457.2 1058.9 457.7 1058.83 458.2 1058.75C458.7 1058.68 459.2 1058.6 459.7 1058.5C459.865 1058.5 460 1058.47 460.121 1058.44C460.22 1058.42 460.31 1058.4 460.4 1058.4C461.3 1058.3 462.3 1058.1 463.2 1057.9C463.25 1057.9 463.325 1057.88 463.4 1057.85C463.475 1057.83 463.55 1057.8 463.6 1057.8C464.1 1057.7 464.625 1057.58 465.15 1057.45C465.675 1057.33 466.2 1057.2 466.7 1057.1C466.8 1057.05 466.925 1057.03 467.05 1057C467.175 1056.98 467.3 1056.95 467.4 1056.9C467.9 1056.8 468.375 1056.68 468.85 1056.55C469.325 1056.43 469.8 1056.3 470.3 1056.2C470.35 1056.2 470.4 1056.18 470.45 1056.15C470.5 1056.13 470.55 1056.1 470.6 1056.1C471.15 1055.95 471.675 1055.8 472.2 1055.65C472.725 1055.5 473.25 1055.35 473.8 1055.2C473.9 1055.15 474.025 1055.13 474.15 1055.1C474.275 1055.08 474.4 1055.05 474.5 1055L477.5 1054.1C477.546 1054.1 477.592 1054.08 477.638 1054.06C477.692 1054.03 477.746 1054 477.8 1054C478.35 1053.8 478.9 1053.63 479.45 1053.45C480 1053.28 480.55 1053.1 481.1 1052.9C481.25 1052.85 481.375 1052.8 481.5 1052.75C481.625 1052.7 481.75 1052.65 481.9 1052.6C482.766 1052.36 483.57 1052.07 484.41 1051.75C484.637 1051.67 484.866 1051.59 485.1 1051.5C485.1 1051.4 485.2 1051.4 485.2 1051.4C485.75 1051.2 486.3 1050.98 486.85 1050.75C487.4 1050.53 487.95 1050.3 488.5 1050.1C488.65 1050.05 488.775 1050 488.9 1049.95C489.025 1049.9 489.15 1049.85 489.3 1049.8C490.5 1049.4 491.599 1048.9 492.699 1048.4L492.7 1048.4C492.741 1048.4 492.8 1048.38 492.869 1048.36C492.966 1048.33 493.083 1048.3 493.2 1048.3H493.9C494 1048.3 494.2 1048.3 494.3 1048.4H494.4C494.45 1048.45 494.525 1048.5 494.6 1048.55C494.675 1048.6 494.75 1048.65 494.8 1048.7L494.9 1048.8C494.95 1048.85 494.975 1048.9 495 1048.95C495.025 1049 495.05 1049.05 495.1 1049.1C495.1 1049.2 495.2 1049.2 495.2 1049.3C495.2 1049.35 495.225 1049.4 495.25 1049.45Z" fill="#042d48"/></g></svg>