<svg width="85" height="16" viewBox="0 0 85 16" fill="none" xmlns="http://www.w3.org/2000/svg">
<path d="M6.47415 12.9911L10.2531 0.285205H13.8182L8.45633 15.7148H6.23173L6.47415 12.9911ZM3.57932 0.285205L7.42959 13.0481L7.61497 15.7148H5.39037L0 0.285205H3.57932Z" fill="white"/>
<path d="M22.8083 16C21.6675 16 20.636 15.8146 19.7138 15.4438C18.8012 15.0636 18.0216 14.5359 17.3751 13.861C16.7382 13.186 16.2486 12.3922 15.9063 11.4795C15.5641 10.5668 15.393 9.58289 15.393 8.52763V7.95722C15.393 6.74985 15.5688 5.65657 15.9206 4.67736C16.2724 3.69816 16.762 2.86156 17.3894 2.16756C18.0169 1.46405 18.7584 0.926916 19.614 0.55615C20.4696 0.185383 21.3965 0 22.3948 0C23.4975 0 24.4625 0.185383 25.2896 0.55615C26.1167 0.926916 26.8012 1.44979 27.3431 2.12478C27.8945 2.79026 28.3032 3.58408 28.5694 4.50624C28.8451 5.4284 28.983 6.44563 28.983 7.55793V9.02674H17.0614V6.55971H25.589V6.28877C25.57 5.67083 25.4464 5.09091 25.2183 4.54902C24.9996 4.00713 24.6621 3.56982 24.2058 3.23708C23.7495 2.90434 23.141 2.73797 22.3805 2.73797C21.8101 2.73797 21.3015 2.86156 20.8546 3.10873C20.4173 3.34641 20.0513 3.69341 19.7566 4.14973C19.4619 4.60606 19.2337 5.15746 19.0721 5.80392C18.92 6.44088 18.8439 7.15865 18.8439 7.95722V8.52763C18.8439 9.20261 18.9343 9.83006 19.1149 10.41C19.305 10.9804 19.5807 11.4795 19.942 11.9073C20.3032 12.3351 20.7406 12.6726 21.2539 12.9198C21.7673 13.1575 22.352 13.2763 23.0079 13.2763C23.835 13.2763 24.5718 13.1099 25.2183 12.7772C25.8647 12.4444 26.4256 11.9739 26.901 11.3654L28.712 13.1194C28.3793 13.6043 27.9467 14.0701 27.4144 14.5169C26.882 14.9542 26.2308 15.3108 25.4607 15.5865C24.7002 15.8622 23.816 16 22.8083 16Z" fill="white"/>
<path d="M35.335 3.57932V15.7148H31.8982V0.285205H35.1353L35.335 3.57932ZM34.7218 7.42959L33.6095 7.41533C33.619 6.32204 33.7711 5.31907 34.0658 4.40642C34.37 3.49376 34.7883 2.70945 35.3207 2.05348C35.8626 1.3975 36.509 0.893643 37.2601 0.54189C38.0111 0.18063 38.8477 0 39.7699 0C40.5114 0 41.1817 0.104576 41.7806 0.313726C42.389 0.513369 42.9072 0.841355 43.335 1.29768C43.7723 1.75401 44.105 2.34819 44.3332 3.08021C44.5613 3.80273 44.6754 4.69162 44.6754 5.74688V15.7148H41.2244V5.73262C41.2244 4.99109 41.1151 4.40642 40.8965 3.97861C40.6873 3.5413 40.3783 3.23232 39.9695 3.05169C39.5702 2.86156 39.0711 2.76649 38.4722 2.76649C37.8828 2.76649 37.3552 2.89008 36.8893 3.13726C36.4235 3.38443 36.029 3.72193 35.7057 4.14973C35.392 4.57754 35.1496 5.0719 34.9785 5.6328C34.8073 6.1937 34.7218 6.79263 34.7218 7.42959Z" fill="white"/>
<path d="M52.1254 0.285205V15.7148H48.6744V0.285205H52.1254Z" fill="white"/>
<path d="M62.456 13.262C63.0169 13.262 63.5208 13.1527 63.9676 12.934C64.4239 12.7059 64.7899 12.3922 65.0656 11.9929C65.3508 11.5936 65.5077 11.1325 65.5362 10.6096H68.7733C68.7543 11.6078 68.4596 12.5157 67.8892 13.3333C67.3187 14.1509 66.563 14.8021 65.6218 15.287C64.6806 15.7623 63.6396 16 62.4988 16C61.3199 16 60.2932 15.8004 59.4186 15.4011C58.544 14.9923 57.8167 14.4314 57.2368 13.7184C56.6568 13.0053 56.2195 12.183 55.9248 11.2513C55.6396 10.3197 55.497 9.32145 55.497 8.25668V7.75758C55.497 6.69281 55.6396 5.69459 55.9248 4.76292C56.2195 3.82175 56.6568 2.99465 57.2368 2.28164C57.8167 1.56863 58.544 1.01248 59.4186 0.613191C60.2932 0.204397 61.3152 0 62.4845 0C63.7204 0 64.8042 0.247178 65.7359 0.741533C66.6675 1.22638 67.3996 1.90612 67.9319 2.78075C68.4738 3.64587 68.7543 4.65359 68.7733 5.80392H65.5362C65.5077 5.23351 65.3651 4.72014 65.1084 4.26381C64.8612 3.79798 64.5095 3.42721 64.0532 3.15152C63.6063 2.87582 63.0692 2.73797 62.4418 2.73797C61.7478 2.73797 61.1726 2.88057 60.7163 3.16578C60.2599 3.44147 59.9034 3.82175 59.6467 4.3066C59.3901 4.78194 59.2047 5.31907 59.0906 5.918C58.986 6.50743 58.9337 7.12062 58.9337 7.75758V8.25668C58.9337 8.89364 58.986 9.51159 59.0906 10.1105C59.1952 10.7094 59.3758 11.2466 59.6325 11.7219C59.8987 12.1878 60.2599 12.5633 60.7163 12.8485C61.1726 13.1242 61.7525 13.262 62.456 13.262Z" fill="white"/>
<path d="M78.4764 16C77.3356 16 76.3041 15.8146 75.382 15.4438C74.4693 15.0636 73.6897 14.5359 73.0433 13.861C72.4063 13.186 71.9167 12.3922 71.5745 11.4795C71.2322 10.5668 71.0611 9.58289 71.0611 8.52763V7.95722C71.0611 6.74985 71.237 5.65657 71.5887 4.67736C71.9405 3.69816 72.4301 2.86156 73.0575 2.16756C73.685 1.46405 74.4265 0.926916 75.2821 0.55615C76.1378 0.185383 77.0647 0 78.0629 0C79.1657 0 80.1306 0.185383 80.9577 0.55615C81.7848 0.926916 82.4693 1.44979 83.0112 2.12478C83.5626 2.79026 83.9714 3.58408 84.2376 4.50624C84.5133 5.4284 84.6511 6.44563 84.6511 7.55793V9.02674H72.7296V6.55971H81.2572V6.28877C81.2382 5.67083 81.1146 5.09091 80.8864 4.54902C80.6678 4.00713 80.3303 3.56982 79.8739 3.23708C79.4176 2.90434 78.8092 2.73797 78.0486 2.73797C77.4782 2.73797 76.9696 2.86156 76.5228 3.10873C76.0855 3.34641 75.7195 3.69341 75.4247 4.14973C75.13 4.60606 74.9019 5.15746 74.7402 5.80392C74.5881 6.44088 74.5121 7.15865 74.5121 7.95722V8.52763C74.5121 9.20261 74.6024 9.83006 74.783 10.41C74.9732 10.9804 75.2489 11.4795 75.6101 11.9073C75.9714 12.3351 76.4087 12.6726 76.9221 12.9198C77.4354 13.1575 78.0201 13.2763 78.6761 13.2763C79.5032 13.2763 80.24 13.1099 80.8864 12.7772C81.5329 12.4444 82.0938 11.9739 82.5691 11.3654L84.3802 13.1194C84.0474 13.6043 83.6149 14.0701 83.0825 14.5169C82.5501 14.9542 81.8989 15.3108 81.1288 15.5865C80.3683 15.8622 79.4842 16 78.4764 16Z" fill="white"/>
</svg>
